<?xml version="1.0" standalone="no"?>
 <!DOCTYPE svg PUBLIC "-//W3C//DTD SVG 1.1//EN" 
 "http://www.w3.org/Graphics/SVG/1.1/DTD/svg11.dtd"> 
<svg xmlns="http://www.w3.org/2000/svg" version="1.1" 
    width="29.7002cm" height="21.0007cm" viewBox="0 0 116930 82680 ">
<title>SVG Picture created as Singe_transistor_AMP-F_Cu.svg date 2020/05/12 23:09:16 </title>
  <desc>Picture generated by PCBNEW </desc>
<g style="fill:#000000; fill-opacity:1;stroke:#000000; stroke-opacity:1;
stroke-linecap:round; stroke-linejoin:round; "
 transform="translate(0 0) scale(1 1)">
</g>
<g style="fill:#000000; fill-opacity:0.0; 
stroke:#000000; stroke-width:-0.000393701; stroke-opacity:1; 
stroke-linecap:round; stroke-linejoin:round;">
</g>
<g style="fill:#000000; fill-opacity:0.0; 
stroke:#000000; stroke-width:39.3701; stroke-opacity:1; 
stroke-linecap:round; stroke-linejoin:round;">
</g>
<g style="fill:#000000; fill-opacity:0.0; 
stroke:#000000; stroke-width:59.0551; stroke-opacity:1; 
stroke-linecap:round; stroke-linejoin:round;">
<rect x="69685.9" y="65357.2" width="42519.7" height="12598.4" rx="0" />
</g>
<g style="fill:#000000; fill-opacity:0.0; 
stroke:#000000; stroke-width:39.3701; stroke-opacity:1; 
stroke-linecap:round; stroke-linejoin:round;">
</g>
<g style="fill:#000000; fill-opacity:0.0; 
stroke:#000000; stroke-width:59.0551; stroke-opacity:1; 
stroke-linecap:round; stroke-linejoin:round;">
<rect x="3937.01" y="3937.01" width="109056" height="74806" rx="0" />
</g>
<g style="fill:#000000; fill-opacity:0.0; 
stroke:#000000; stroke-width:39.3701; stroke-opacity:1; 
stroke-linecap:round; stroke-linejoin:round;">
</g>
<g style="fill:#000000; fill-opacity:0.0; 
stroke:#000000; stroke-width:59.0551; stroke-opacity:1; 
stroke-linecap:round; stroke-linejoin:round;">
<rect x="4724.41" y="4724.41" width="107481" height="73231.2" rx="0" />
</g>
<g style="fill:#000000; fill-opacity:0.0; 
stroke:#000000; stroke-width:39.3701; stroke-opacity:1; 
stroke-linecap:round; stroke-linejoin:round;">
</g>
<g style="fill:#000000; fill-opacity:0.0; 
stroke:#000000; stroke-width:59.0551; stroke-opacity:1; 
stroke-linecap:round; stroke-linejoin:round;">
<path d="M23622 4724
L23622 3937
" />
</g>
<g style="fill:#000000; fill-opacity:0.0; 
stroke:#000000; stroke-width:39.3701; stroke-opacity:1; 
stroke-linecap:round; stroke-linejoin:round;">
</g>
<g style="fill:#000000; fill-opacity:0.0; 
stroke:#000000; stroke-width:59.0551; stroke-opacity:1; 
stroke-linecap:round; stroke-linejoin:round;">
<path d="M43307 4724
L43307 3937
" />
</g>
<g style="fill:#000000; fill-opacity:0.0; 
stroke:#000000; stroke-width:39.3701; stroke-opacity:1; 
stroke-linecap:round; stroke-linejoin:round;">
</g>
<g style="fill:#000000; fill-opacity:0.0; 
stroke:#000000; stroke-width:59.0551; stroke-opacity:1; 
stroke-linecap:round; stroke-linejoin:round;">
<path d="M62992 4724
L62992 3937
" />
</g>
<g style="fill:#000000; fill-opacity:0.0; 
stroke:#000000; stroke-width:39.3701; stroke-opacity:1; 
stroke-linecap:round; stroke-linejoin:round;">
</g>
<g style="fill:#000000; fill-opacity:0.0; 
stroke:#000000; stroke-width:59.0551; stroke-opacity:1; 
stroke-linecap:round; stroke-linejoin:round;">
<path d="M82677 4724
L82677 3937
" />
</g>
<g style="fill:#000000; fill-opacity:0.0; 
stroke:#000000; stroke-width:39.3701; stroke-opacity:1; 
stroke-linecap:round; stroke-linejoin:round;">
</g>
<g style="fill:#000000; fill-opacity:0.0; 
stroke:#000000; stroke-width:59.0551; stroke-opacity:1; 
stroke-linecap:round; stroke-linejoin:round;">
<path d="M102362 4724
L102362 3937
" />
</g>
<g style="fill:#000000; fill-opacity:0.0; 
stroke:#000000; stroke-width:39.3701; stroke-opacity:1; 
stroke-linecap:round; stroke-linejoin:round;">
</g>
<g style="fill:#000000; fill-opacity:0.0; 
stroke:#000000; stroke-width:59.0551; stroke-opacity:1; 
stroke-linecap:round; stroke-linejoin:round;">
<path d="M14199 4562
L13906 4562
" />
<path d="M14052 4562
L14052 4050
L14004 4123
L13955 4172
L13906 4196
" />
</g>
<g style="fill:#000000; fill-opacity:0.0; 
stroke:#000000; stroke-width:39.3701; stroke-opacity:1; 
stroke-linecap:round; stroke-linejoin:round;">
</g>
<g style="fill:#000000; fill-opacity:0.0; 
stroke:#000000; stroke-width:59.0551; stroke-opacity:1; 
stroke-linecap:round; stroke-linejoin:round;">
<path d="M33591 4099
L33615 4074
L33664 4050
L33786 4050
L33835 4074
L33859 4099
L33884 4147
L33884 4196
L33859 4269
L33567 4562
L33884 4562
" />
</g>
<g style="fill:#000000; fill-opacity:0.0; 
stroke:#000000; stroke-width:39.3701; stroke-opacity:1; 
stroke-linecap:round; stroke-linejoin:round;">
</g>
<g style="fill:#000000; fill-opacity:0.0; 
stroke:#000000; stroke-width:59.0551; stroke-opacity:1; 
stroke-linecap:round; stroke-linejoin:round;">
<path d="M53252 4050
L53569 4050
L53398 4245
L53471 4245
L53520 4269
L53544 4294
L53569 4342
L53569 4464
L53544 4513
L53520 4537
L53471 4562
L53325 4562
L53276 4537
L53252 4513
" />
</g>
<g style="fill:#000000; fill-opacity:0.0; 
stroke:#000000; stroke-width:39.3701; stroke-opacity:1; 
stroke-linecap:round; stroke-linejoin:round;">
</g>
<g style="fill:#000000; fill-opacity:0.0; 
stroke:#000000; stroke-width:59.0551; stroke-opacity:1; 
stroke-linecap:round; stroke-linejoin:round;">
<path d="M73205 4221
L73205 4562
" />
<path d="M73083 4026
L72961 4391
L73278 4391
" />
</g>
<g style="fill:#000000; fill-opacity:0.0; 
stroke:#000000; stroke-width:39.3701; stroke-opacity:1; 
stroke-linecap:round; stroke-linejoin:round;">
</g>
<g style="fill:#000000; fill-opacity:0.0; 
stroke:#000000; stroke-width:59.0551; stroke-opacity:1; 
stroke-linecap:round; stroke-linejoin:round;">
<path d="M92914 4050
L92671 4050
L92646 4294
L92671 4269
L92719 4245
L92841 4245
L92890 4269
L92914 4294
L92939 4342
L92939 4464
L92914 4513
L92890 4537
L92841 4562
L92719 4562
L92671 4537
L92646 4513
" />
</g>
<g style="fill:#000000; fill-opacity:0.0; 
stroke:#000000; stroke-width:39.3701; stroke-opacity:1; 
stroke-linecap:round; stroke-linejoin:round;">
</g>
<g style="fill:#000000; fill-opacity:0.0; 
stroke:#000000; stroke-width:59.0551; stroke-opacity:1; 
stroke-linecap:round; stroke-linejoin:round;">
<path d="M112575 4050
L112477 4050
L112429 4074
L112404 4099
L112356 4172
L112331 4269
L112331 4464
L112356 4513
L112380 4537
L112429 4562
L112526 4562
L112575 4537
L112599 4513
L112624 4464
L112624 4342
L112599 4294
L112575 4269
L112526 4245
L112429 4245
L112380 4269
L112356 4294
L112331 4342
" />
</g>
<g style="fill:#000000; fill-opacity:0.0; 
stroke:#000000; stroke-width:39.3701; stroke-opacity:1; 
stroke-linecap:round; stroke-linejoin:round;">
</g>
<g style="fill:#000000; fill-opacity:0.0; 
stroke:#000000; stroke-width:59.0551; stroke-opacity:1; 
stroke-linecap:round; stroke-linejoin:round;">
<path d="M23622 77955
L23622 78742
" />
</g>
<g style="fill:#000000; fill-opacity:0.0; 
stroke:#000000; stroke-width:39.3701; stroke-opacity:1; 
stroke-linecap:round; stroke-linejoin:round;">
</g>
<g style="fill:#000000; fill-opacity:0.0; 
stroke:#000000; stroke-width:59.0551; stroke-opacity:1; 
stroke-linecap:round; stroke-linejoin:round;">
<path d="M43307 77955
L43307 78742
" />
</g>
<g style="fill:#000000; fill-opacity:0.0; 
stroke:#000000; stroke-width:39.3701; stroke-opacity:1; 
stroke-linecap:round; stroke-linejoin:round;">
</g>
<g style="fill:#000000; fill-opacity:0.0; 
stroke:#000000; stroke-width:59.0551; stroke-opacity:1; 
stroke-linecap:round; stroke-linejoin:round;">
<path d="M62992 77955
L62992 78742
" />
</g>
<g style="fill:#000000; fill-opacity:0.0; 
stroke:#000000; stroke-width:39.3701; stroke-opacity:1; 
stroke-linecap:round; stroke-linejoin:round;">
</g>
<g style="fill:#000000; fill-opacity:0.0; 
stroke:#000000; stroke-width:59.0551; stroke-opacity:1; 
stroke-linecap:round; stroke-linejoin:round;">
<path d="M82677 77955
L82677 78742
" />
</g>
<g style="fill:#000000; fill-opacity:0.0; 
stroke:#000000; stroke-width:39.3701; stroke-opacity:1; 
stroke-linecap:round; stroke-linejoin:round;">
</g>
<g style="fill:#000000; fill-opacity:0.0; 
stroke:#000000; stroke-width:59.0551; stroke-opacity:1; 
stroke-linecap:round; stroke-linejoin:round;">
<path d="M102362 77955
L102362 78742
" />
</g>
<g style="fill:#000000; fill-opacity:0.0; 
stroke:#000000; stroke-width:39.3701; stroke-opacity:1; 
stroke-linecap:round; stroke-linejoin:round;">
</g>
<g style="fill:#000000; fill-opacity:0.0; 
stroke:#000000; stroke-width:59.0551; stroke-opacity:1; 
stroke-linecap:round; stroke-linejoin:round;">
<path d="M14199 78580
L13906 78580
" />
<path d="M14052 78580
L14052 78069
L14004 78142
L13955 78190
L13906 78215
" />
</g>
<g style="fill:#000000; fill-opacity:0.0; 
stroke:#000000; stroke-width:39.3701; stroke-opacity:1; 
stroke-linecap:round; stroke-linejoin:round;">
</g>
<g style="fill:#000000; fill-opacity:0.0; 
stroke:#000000; stroke-width:59.0551; stroke-opacity:1; 
stroke-linecap:round; stroke-linejoin:round;">
<path d="M33591 78117
L33615 78093
L33664 78069
L33786 78069
L33835 78093
L33859 78117
L33884 78166
L33884 78215
L33859 78288
L33567 78580
L33884 78580
" />
</g>
<g style="fill:#000000; fill-opacity:0.0; 
stroke:#000000; stroke-width:39.3701; stroke-opacity:1; 
stroke-linecap:round; stroke-linejoin:round;">
</g>
<g style="fill:#000000; fill-opacity:0.0; 
stroke:#000000; stroke-width:59.0551; stroke-opacity:1; 
stroke-linecap:round; stroke-linejoin:round;">
<path d="M53252 78069
L53569 78069
L53398 78263
L53471 78263
L53520 78288
L53544 78312
L53569 78361
L53569 78483
L53544 78532
L53520 78556
L53471 78580
L53325 78580
L53276 78556
L53252 78532
" />
</g>
<g style="fill:#000000; fill-opacity:0.0; 
stroke:#000000; stroke-width:39.3701; stroke-opacity:1; 
stroke-linecap:round; stroke-linejoin:round;">
</g>
<g style="fill:#000000; fill-opacity:0.0; 
stroke:#000000; stroke-width:59.0551; stroke-opacity:1; 
stroke-linecap:round; stroke-linejoin:round;">
<path d="M73205 78239
L73205 78580
" />
<path d="M73083 78044
L72961 78410
L73278 78410
" />
</g>
<g style="fill:#000000; fill-opacity:0.0; 
stroke:#000000; stroke-width:39.3701; stroke-opacity:1; 
stroke-linecap:round; stroke-linejoin:round;">
</g>
<g style="fill:#000000; fill-opacity:0.0; 
stroke:#000000; stroke-width:59.0551; stroke-opacity:1; 
stroke-linecap:round; stroke-linejoin:round;">
<path d="M92914 78069
L92671 78069
L92646 78312
L92671 78288
L92719 78263
L92841 78263
L92890 78288
L92914 78312
L92939 78361
L92939 78483
L92914 78532
L92890 78556
L92841 78580
L92719 78580
L92671 78556
L92646 78532
" />
</g>
<g style="fill:#000000; fill-opacity:0.0; 
stroke:#000000; stroke-width:39.3701; stroke-opacity:1; 
stroke-linecap:round; stroke-linejoin:round;">
</g>
<g style="fill:#000000; fill-opacity:0.0; 
stroke:#000000; stroke-width:59.0551; stroke-opacity:1; 
stroke-linecap:round; stroke-linejoin:round;">
<path d="M112575 78069
L112477 78069
L112429 78093
L112404 78117
L112356 78190
L112331 78288
L112331 78483
L112356 78532
L112380 78556
L112429 78580
L112526 78580
L112575 78556
L112599 78532
L112624 78483
L112624 78361
L112599 78312
L112575 78288
L112526 78263
L112429 78263
L112380 78288
L112356 78312
L112331 78361
" />
</g>
<g style="fill:#000000; fill-opacity:0.0; 
stroke:#000000; stroke-width:39.3701; stroke-opacity:1; 
stroke-linecap:round; stroke-linejoin:round;">
</g>
<g style="fill:#000000; fill-opacity:0.0; 
stroke:#000000; stroke-width:59.0551; stroke-opacity:1; 
stroke-linecap:round; stroke-linejoin:round;">
<path d="M3937 23622
L4724 23622
" />
</g>
<g style="fill:#000000; fill-opacity:0.0; 
stroke:#000000; stroke-width:39.3701; stroke-opacity:1; 
stroke-linecap:round; stroke-linejoin:round;">
</g>
<g style="fill:#000000; fill-opacity:0.0; 
stroke:#000000; stroke-width:59.0551; stroke-opacity:1; 
stroke-linecap:round; stroke-linejoin:round;">
<path d="M3937 43307
L4724 43307
" />
</g>
<g style="fill:#000000; fill-opacity:0.0; 
stroke:#000000; stroke-width:39.3701; stroke-opacity:1; 
stroke-linecap:round; stroke-linejoin:round;">
</g>
<g style="fill:#000000; fill-opacity:0.0; 
stroke:#000000; stroke-width:59.0551; stroke-opacity:1; 
stroke-linecap:round; stroke-linejoin:round;">
<path d="M3937 62992
L4724 62992
" />
</g>
<g style="fill:#000000; fill-opacity:0.0; 
stroke:#000000; stroke-width:39.3701; stroke-opacity:1; 
stroke-linecap:round; stroke-linejoin:round;">
</g>
<g style="fill:#000000; fill-opacity:0.0; 
stroke:#000000; stroke-width:59.0551; stroke-opacity:1; 
stroke-linecap:round; stroke-linejoin:round;">
<path d="M4208 13864
L4452 13864
" />
<path d="M4160 14011
L4330 13499
L4501 14011
" />
</g>
<g style="fill:#000000; fill-opacity:0.0; 
stroke:#000000; stroke-width:39.3701; stroke-opacity:1; 
stroke-linecap:round; stroke-linejoin:round;">
</g>
<g style="fill:#000000; fill-opacity:0.0; 
stroke:#000000; stroke-width:59.0551; stroke-opacity:1; 
stroke-linecap:round; stroke-linejoin:round;">
<path d="M4367 33428
L4440 33452
L4464 33476
L4489 33525
L4489 33598
L4464 33647
L4440 33671
L4391 33696
L4196 33696
L4196 33184
L4367 33184
L4416 33208
L4440 33233
L4464 33281
L4464 33330
L4440 33379
L4416 33403
L4367 33428
L4196 33428
" />
</g>
<g style="fill:#000000; fill-opacity:0.0; 
stroke:#000000; stroke-width:39.3701; stroke-opacity:1; 
stroke-linecap:round; stroke-linejoin:round;">
</g>
<g style="fill:#000000; fill-opacity:0.0; 
stroke:#000000; stroke-width:59.0551; stroke-opacity:1; 
stroke-linecap:round; stroke-linejoin:round;">
<path d="M4489 53332
L4464 53356
L4391 53381
L4342 53381
L4269 53356
L4221 53308
L4196 53259
L4172 53161
L4172 53088
L4196 52991
L4221 52942
L4269 52893
L4342 52869
L4391 52869
L4464 52893
L4489 52918
" />
</g>
<g style="fill:#000000; fill-opacity:0.0; 
stroke:#000000; stroke-width:39.3701; stroke-opacity:1; 
stroke-linecap:round; stroke-linejoin:round;">
</g>
<g style="fill:#000000; fill-opacity:0.0; 
stroke:#000000; stroke-width:59.0551; stroke-opacity:1; 
stroke-linecap:round; stroke-linejoin:round;">
<path d="M4196 73066
L4196 72554
L4318 72554
L4391 72578
L4440 72627
L4464 72676
L4489 72773
L4489 72846
L4464 72944
L4440 72993
L4391 73041
L4318 73066
L4196 73066
" />
</g>
<g style="fill:#000000; fill-opacity:0.0; 
stroke:#000000; stroke-width:39.3701; stroke-opacity:1; 
stroke-linecap:round; stroke-linejoin:round;">
</g>
<g style="fill:#000000; fill-opacity:0.0; 
stroke:#000000; stroke-width:59.0551; stroke-opacity:1; 
stroke-linecap:round; stroke-linejoin:round;">
<path d="M112992 23622
L112205 23622
" />
</g>
<g style="fill:#000000; fill-opacity:0.0; 
stroke:#000000; stroke-width:39.3701; stroke-opacity:1; 
stroke-linecap:round; stroke-linejoin:round;">
</g>
<g style="fill:#000000; fill-opacity:0.0; 
stroke:#000000; stroke-width:59.0551; stroke-opacity:1; 
stroke-linecap:round; stroke-linejoin:round;">
<path d="M112992 43307
L112205 43307
" />
</g>
<g style="fill:#000000; fill-opacity:0.0; 
stroke:#000000; stroke-width:39.3701; stroke-opacity:1; 
stroke-linecap:round; stroke-linejoin:round;">
</g>
<g style="fill:#000000; fill-opacity:0.0; 
stroke:#000000; stroke-width:59.0551; stroke-opacity:1; 
stroke-linecap:round; stroke-linejoin:round;">
<path d="M112992 62992
L112205 62992
" />
</g>
<g style="fill:#000000; fill-opacity:0.0; 
stroke:#000000; stroke-width:39.3701; stroke-opacity:1; 
stroke-linecap:round; stroke-linejoin:round;">
</g>
<g style="fill:#000000; fill-opacity:0.0; 
stroke:#000000; stroke-width:59.0551; stroke-opacity:1; 
stroke-linecap:round; stroke-linejoin:round;">
<path d="M112477 13864
L112721 13864
" />
<path d="M112428 14011
L112599 13499
L112769 14011
" />
</g>
<g style="fill:#000000; fill-opacity:0.0; 
stroke:#000000; stroke-width:39.3701; stroke-opacity:1; 
stroke-linecap:round; stroke-linejoin:round;">
</g>
<g style="fill:#000000; fill-opacity:0.0; 
stroke:#000000; stroke-width:59.0551; stroke-opacity:1; 
stroke-linecap:round; stroke-linejoin:round;">
<path d="M112635 33428
L112708 33452
L112733 33476
L112757 33525
L112757 33598
L112733 33647
L112708 33671
L112660 33696
L112465 33696
L112465 33184
L112635 33184
L112684 33208
L112708 33233
L112733 33281
L112733 33330
L112708 33379
L112684 33403
L112635 33428
L112465 33428
" />
</g>
<g style="fill:#000000; fill-opacity:0.0; 
stroke:#000000; stroke-width:39.3701; stroke-opacity:1; 
stroke-linecap:round; stroke-linejoin:round;">
</g>
<g style="fill:#000000; fill-opacity:0.0; 
stroke:#000000; stroke-width:59.0551; stroke-opacity:1; 
stroke-linecap:round; stroke-linejoin:round;">
<path d="M112757 53332
L112733 53356
L112660 53381
L112611 53381
L112538 53356
L112489 53308
L112465 53259
L112440 53161
L112440 53088
L112465 52991
L112489 52942
L112538 52893
L112611 52869
L112660 52869
L112733 52893
L112757 52918
" />
</g>
<g style="fill:#000000; fill-opacity:0.0; 
stroke:#000000; stroke-width:39.3701; stroke-opacity:1; 
stroke-linecap:round; stroke-linejoin:round;">
</g>
<g style="fill:#000000; fill-opacity:0.0; 
stroke:#000000; stroke-width:59.0551; stroke-opacity:1; 
stroke-linecap:round; stroke-linejoin:round;">
<path d="M112465 73066
L112465 72554
L112587 72554
L112660 72578
L112708 72627
L112733 72676
L112757 72773
L112757 72846
L112733 72944
L112708 72993
L112660 73041
L112587 73066
L112465 73066
" />
</g>
<g style="fill:#000000; fill-opacity:0.0; 
stroke:#000000; stroke-width:39.3701; stroke-opacity:1; 
stroke-linecap:round; stroke-linejoin:round;">
</g>
<g style="fill:#000000; fill-opacity:0.0; 
stroke:#000000; stroke-width:59.0551; stroke-opacity:1; 
stroke-linecap:round; stroke-linejoin:round;">
<path d="M78911 76293
L78911 75703
L79051 75703
L79136 75731
L79192 75787
L79220 75843
L79248 75956
L79248 76040
L79220 76153
L79192 76209
L79136 76265
L79051 76293
L78911 76293
" />
<path d="M79754 76293
L79754 75984
L79726 75928
L79670 75899
L79557 75899
L79501 75928
" />
<path d="M79754 76265
L79698 76293
L79557 76293
L79501 76265
L79473 76209
L79473 76153
L79501 76096
L79557 76068
L79698 76068
L79754 76040
" />
<path d="M79951 75899
L80176 75899
" />
<path d="M80036 75703
L80036 76209
L80064 76265
L80120 76293
L80176 76293
" />
<path d="M80598 76265
L80542 76293
L80429 76293
L80373 76265
L80345 76209
L80345 75984
L80373 75928
L80429 75899
L80542 75899
L80598 75928
L80626 75984
L80626 76040
L80345 76096
" />
<path d="M80879 76237
L80907 76265
L80879 76293
L80851 76265
L80879 76237
L80879 76293
" />
<path d="M80879 75928
L80907 75956
L80879 75984
L80851 75956
L80879 75928
L80879 75984
" />
<path d="M81920 76293
L81582 76293
" />
<path d="M81751 76293
L81751 75703
L81695 75787
L81638 75843
L81582 75871
" />
<path d="M82201 76293
L82313 76293
L82370 76265
L82398 76237
L82454 76153
L82482 76040
L82482 75815
L82454 75759
L82426 75731
L82370 75703
L82257 75703
L82201 75731
L82173 75759
L82145 75815
L82145 75956
L82173 76012
L82201 76040
L82257 76068
L82370 76068
L82426 76040
L82454 76012
L82482 75956
" />
<path d="M82763 76293
L82876 76293
L82932 76265
L82960 76237
L83016 76153
L83045 76040
L83045 75815
L83016 75759
L82988 75731
L82932 75703
L82820 75703
L82763 75731
L82735 75759
L82707 75815
L82707 75956
L82735 76012
L82763 76040
L82820 76068
L82932 76068
L82988 76040
L83016 76012
L83045 75956
" />
<path d="M83241 75703
L83635 75703
L83382 76293
" />
<path d="M83860 76068
L84310 76068
" />
<path d="M84901 76293
L84563 76293
" />
<path d="M84732 76293
L84732 75703
L84676 75787
L84619 75843
L84563 75871
" />
<path d="M85126 75759
L85154 75731
L85210 75703
L85350 75703
L85407 75731
L85435 75759
L85463 75815
L85463 75871
L85435 75956
L85097 76293
L85463 76293
" />
<path d="M85716 76068
L86166 76068
" />
<path d="M86391 75703
L86757 75703
L86560 75928
L86644 75928
L86700 75956
L86728 75984
L86757 76040
L86757 76181
L86728 76237
L86700 76265
L86644 76293
L86475 76293
L86419 76265
L86391 76237
" />
<path d="M87319 76293
L86982 76293
" />
<path d="M87150 76293
L87150 75703
L87094 75787
L87038 75843
L86982 75871
" />
</g>
<g style="fill:#000000; fill-opacity:0.0; 
stroke:#000000; stroke-width:39.3701; stroke-opacity:1; 
stroke-linecap:round; stroke-linejoin:round;">
</g>
<g style="fill:#000000; fill-opacity:0.0; 
stroke:#000000; stroke-width:59.0551; stroke-opacity:1; 
stroke-linecap:round; stroke-linejoin:round;">
<path d="M69685 76577
L112205 76577
" />
</g>
<g style="fill:#000000; fill-opacity:0.0; 
stroke:#000000; stroke-width:39.3701; stroke-opacity:1; 
stroke-linecap:round; stroke-linejoin:round;">
</g>
<g style="fill:#000000; fill-opacity:0.0; 
stroke:#000000; stroke-width:59.0551; stroke-opacity:1; 
stroke-linecap:round; stroke-linejoin:round;">
<path d="M70249 77395
L70249 76805
" />
<path d="M70587 77395
L70334 77058
" />
<path d="M70587 76805
L70249 77142
" />
<path d="M70840 77395
L70840 77002
" />
<path d="M70840 76805
L70812 76833
L70840 76861
L70868 76833
L70840 76805
L70840 76861
" />
<path d="M71458 77339
L71430 77367
L71346 77395
L71290 77395
L71205 77367
L71149 77311
L71121 77255
L71093 77142
L71093 77058
L71121 76946
L71149 76889
L71205 76833
L71290 76805
L71346 76805
L71430 76833
L71458 76861
" />
<path d="M71965 77395
L71965 77086
L71937 77030
L71880 77002
L71768 77002
L71712 77030
" />
<path d="M71965 77367
L71908 77395
L71768 77395
L71712 77367
L71683 77311
L71683 77255
L71712 77199
L71768 77171
L71908 77171
L71965 77142
" />
<path d="M72499 77395
L72499 76805
" />
<path d="M72499 77367
L72443 77395
L72330 77395
L72274 77367
L72246 77339
L72218 77283
L72218 77114
L72246 77058
L72274 77030
L72330 77002
L72443 77002
L72499 77030
" />
<path d="M73230 77086
L73427 77086
" />
<path d="M73511 77395
L73230 77395
L73230 76805
L73511 76805
" />
<path d="M73764 77339
L73793 77367
L73764 77395
L73736 77367
L73764 77339
L73764 77395
" />
<path d="M74046 77395
L74046 76805
L74186 76805
L74271 76833
L74327 76889
L74355 76946
L74383 77058
L74383 77142
L74355 77255
L74327 77311
L74271 77367
L74186 77395
L74046 77395
" />
<path d="M74636 77339
L74664 77367
L74636 77395
L74608 77367
L74636 77339
L74636 77395
" />
<path d="M74889 77227
L75171 77227
" />
<path d="M74833 77395
L75030 76805
L75227 77395
" />
<path d="M75424 77339
L75452 77367
L75424 77395
L75395 77367
L75424 77339
L75424 77395
" />
<path d="M76605 77395
L76605 76805
" />
<path d="M76661 77171
L76830 77395
" />
<path d="M76830 77002
L76605 77227
" />
<path d="M77083 77395
L77083 77002
" />
<path d="M77083 76805
L77055 76833
L77083 76861
L77111 76833
L77083 76805
L77083 76861
" />
<path d="M77617 77367
L77561 77395
L77448 77395
L77392 77367
L77364 77339
L77336 77283
L77336 77114
L77364 77058
L77392 77030
L77448 77002
L77561 77002
L77617 77030
" />
<path d="M78123 77395
L78123 77086
L78095 77030
L78039 77002
L77926 77002
L77870 77030
" />
<path d="M78123 77367
L78067 77395
L77926 77395
L77870 77367
L77842 77311
L77842 77255
L77870 77199
L77926 77171
L78067 77171
L78123 77142
" />
<path d="M78658 77395
L78658 76805
" />
<path d="M78658 77367
L78601 77395
L78489 77395
L78433 77367
L78404 77339
L78376 77283
L78376 77114
L78404 77058
L78433 77030
L78489 77002
L78601 77002
L78658 77030
" />
<path d="M79557 77620
L79529 77592
L79473 77508
L79445 77452
L79417 77367
L79389 77227
L79389 77114
L79417 76974
L79445 76889
L79473 76833
L79529 76749
L79557 76721
" />
<path d="M80064 76805
L79782 76805
L79754 77086
L79782 77058
L79839 77030
L79979 77030
L80036 77058
L80064 77086
L80092 77142
L80092 77283
L80064 77339
L80036 77367
L79979 77395
L79839 77395
L79782 77367
L79754 77339
" />
<path d="M80345 77339
L80373 77367
L80345 77395
L80317 77367
L80345 77339
L80345 77395
" />
<path d="M80935 77395
L80598 77395
" />
<path d="M80767 77395
L80767 76805
L80710 76889
L80654 76946
L80598 76974
" />
<path d="M81188 77339
L81217 77367
L81188 77395
L81160 77367
L81188 77339
L81188 77395
" />
<path d="M81723 77002
L81723 77395
" />
<path d="M81582 76777
L81442 77199
L81807 77199
" />
<path d="M81976 77620
L82004 77592
L82060 77508
L82088 77452
L82117 77367
L82145 77227
L82145 77114
L82117 76974
L82088 76889
L82060 76833
L82004 76749
L81976 76721
" />
<path d="M82426 77171
L82876 77171
" />
<path d="M83466 77395
L83129 77395
" />
<path d="M83298 77395
L83298 76805
L83241 76889
L83185 76946
L83129 76974
" />
</g>
<g style="fill:#000000; fill-opacity:0.0; 
stroke:#000000; stroke-width:39.3701; stroke-opacity:1; 
stroke-linecap:round; stroke-linejoin:round;">
</g>
<g style="fill:#000000; fill-opacity:0.0; 
stroke:#000000; stroke-width:59.0551; stroke-opacity:1; 
stroke-linecap:round; stroke-linejoin:round;">
<path d="M69685 75396
L112205 75396
" />
</g>
<g style="fill:#000000; fill-opacity:0.0; 
stroke:#000000; stroke-width:39.3701; stroke-opacity:1; 
stroke-linecap:round; stroke-linejoin:round;">
</g>
<g style="fill:#000000; fill-opacity:0.0; 
stroke:#000000; stroke-width:118.11; stroke-opacity:1; 
stroke-linecap:round; stroke-linejoin:round;">
<path d="M104099 76293
L103902 76012
" />
<path d="M103761 76293
L103761 75703
L103986 75703
L104042 75731
L104070 75759
L104099 75815
L104099 75899
L104070 75956
L104042 75984
L103986 76012
L103761 76012
" />
<path d="M104577 76265
L104520 76293
L104408 76293
L104352 76265
L104323 76209
L104323 75984
L104352 75928
L104408 75899
L104520 75899
L104577 75928
L104605 75984
L104605 76040
L104323 76096
" />
<path d="M104802 75899
L104942 76293
L105083 75899
" />
<path d="M105308 76237
L105336 76265
L105308 76293
L105280 76265
L105308 76237
L105308 76293
" />
<path d="M105308 75928
L105336 75956
L105308 75984
L105280 75956
L105308 75928
L105308 75984
" />
<path d="M105955 75703
L106151 76293
L106348 75703
" />
<path d="M106854 76293
L106517 76293
" />
<path d="M106686 76293
L106686 75703
L106629 75787
L106573 75843
L106517 75871
" />
</g>
<g style="fill:#000000; fill-opacity:0.0; 
stroke:#000000; stroke-width:39.3701; stroke-opacity:1; 
stroke-linecap:round; stroke-linejoin:round;">
</g>
<g style="fill:#000000; fill-opacity:0.0; 
stroke:#000000; stroke-width:59.0551; stroke-opacity:1; 
stroke-linecap:round; stroke-linejoin:round;">
<path d="M70221 76265
L70305 76293
L70446 76293
L70502 76265
L70530 76237
L70559 76181
L70559 76124
L70530 76068
L70502 76040
L70446 76012
L70334 75984
L70277 75956
L70249 75928
L70221 75871
L70221 75815
L70249 75759
L70277 75731
L70334 75703
L70474 75703
L70559 75731
" />
<path d="M70812 76293
L70812 75899
" />
<path d="M70812 75703
L70784 75731
L70812 75759
L70840 75731
L70812 75703
L70812 75759
" />
<path d="M71037 75899
L71346 75899
L71037 76293
L71346 76293
" />
<path d="M71796 76265
L71740 76293
L71627 76293
L71571 76265
L71543 76209
L71543 75984
L71571 75928
L71627 75899
L71740 75899
L71796 75928
L71824 75984
L71824 76040
L71543 76096
" />
<path d="M72077 76237
L72105 76265
L72077 76293
L72049 76265
L72077 76237
L72077 76293
" />
<path d="M72077 75928
L72105 75956
L72077 75984
L72049 75956
L72077 75928
L72077 75984
" />
<path d="M72780 76124
L73061 76124
" />
<path d="M72724 76293
L72921 75703
L73118 76293
" />
<path d="M73568 75899
L73568 76293
" />
<path d="M73427 75674
L73286 76096
L73652 76096
" />
</g>
<g style="fill:#000000; fill-opacity:0.0; 
stroke:#000000; stroke-width:39.3701; stroke-opacity:1; 
stroke-linecap:round; stroke-linejoin:round;">
</g>
<g style="fill:#000000; fill-opacity:0.0; 
stroke:#000000; stroke-width:59.0551; stroke-opacity:1; 
stroke-linecap:round; stroke-linejoin:round;">
<path d="M103714 77395
L103714 76805
" />
<path d="M104248 77395
L104248 76805
" />
<path d="M104248 77367
L104192 77395
L104079 77395
L104023 77367
L103995 77339
L103967 77283
L103967 77114
L103995 77058
L104023 77030
L104079 77002
L104192 77002
L104248 77030
" />
<path d="M104529 77339
L104557 77367
L104529 77395
L104501 77367
L104529 77339
L104529 77395
" />
<path d="M104529 77030
L104557 77058
L104529 77086
L104501 77058
L104529 77030
L104529 77086
" />
<path d="M105570 77395
L105232 77395
" />
<path d="M105401 77395
L105401 76805
L105345 76889
L105289 76946
L105232 76974
" />
<path d="M106245 76777
L105739 77536
" />
<path d="M106751 77395
L106413 77395
" />
<path d="M106582 77395
L106582 76805
L106526 76889
L106470 76946
L106413 76974
" />
</g>
<g style="fill:#000000; fill-opacity:0.0; 
stroke:#000000; stroke-width:39.3701; stroke-opacity:1; 
stroke-linecap:round; stroke-linejoin:round;">
</g>
<g style="fill:#000000; fill-opacity:0.0; 
stroke:#000000; stroke-width:59.0551; stroke-opacity:1; 
stroke-linecap:round; stroke-linejoin:round;">
<path d="M69685 73821
L112205 73821
" />
</g>
<g style="fill:#000000; fill-opacity:0.0; 
stroke:#000000; stroke-width:39.3701; stroke-opacity:1; 
stroke-linecap:round; stroke-linejoin:round;">
</g>
<g style="fill:#000000; fill-opacity:0.0; 
stroke:#000000; stroke-width:157.48; stroke-opacity:1; 
stroke-linecap:round; stroke-linejoin:round;">
<path d="M70360 74099
L70810 74099
" />
<path d="M70486 74886
L70585 74099
" />
<path d="M70974 74886
L71039 74361
" />
<path d="M71072 74099
L71030 74136
L71063 74174
L71105 74136
L71072 74099
L71063 74174
" />
<path d="M71302 74361
L71602 74361
" />
<path d="M71447 74099
L71363 74774
L71391 74849
L71461 74886
L71536 74886
" />
<path d="M71911 74886
L71841 74849
L71813 74774
L71897 74099
" />
<path d="M72516 74849
L72436 74886
L72286 74886
L72216 74849
L72187 74774
L72225 74474
L72272 74399
L72352 74361
L72501 74361
L72572 74399
L72600 74474
L72591 74549
L72206 74624
" />
<path d="M72895 74811
L72928 74849
L72886 74886
L72853 74849
L72895 74811
L72886 74886
" />
<path d="M72947 74399
L72980 74436
L72937 74474
L72905 74436
L72947 74399
L72937 74474
" />
<path d="M73828 74849
L73936 74886
L74123 74886
L74203 74849
L74245 74811
L74292 74736
L74301 74661
L74273 74586
L74240 74549
L74170 74511
L74025 74474
L73954 74436
L73922 74399
L73894 74324
L73903 74249
L73950 74174
L73992 74136
L74072 74099
L74259 74099
L74367 74136
" />
<path d="M74611 74886
L74676 74361
" />
<path d="M74709 74099
L74667 74136
L74700 74174
L74742 74136
L74709 74099
L74700 74174
" />
<path d="M75051 74361
L74986 74886
" />
<path d="M75042 74436
L75084 74399
L75164 74361
L75276 74361
L75346 74399
L75375 74474
L75323 74886
" />
<path d="M76101 74361
L76021 74999
L75974 75074
L75932 75111
L75853 75149
L75740 75149
L75670 75111
" />
<path d="M76040 74849
L75960 74886
L75810 74886
L75740 74849
L75707 74811
L75679 74736
L75707 74511
L75754 74436
L75796 74399
L75876 74361
L76026 74361
L76096 74399
" />
<path d="M76523 74886
L76453 74849
L76424 74774
L76509 74099
" />
<path d="M77127 74849
L77048 74886
L76898 74886
L76828 74849
L76799 74774
L76837 74474
L76884 74399
L76963 74361
L77113 74361
L77184 74399
L77212 74474
L77202 74549
L76818 74624
" />
<path d="M78051 74361
L78351 74361
" />
<path d="M78196 74099
L78112 74774
L78140 74849
L78210 74886
L78285 74886
" />
<path d="M78548 74886
L78613 74361
" />
<path d="M78594 74511
L78641 74436
L78684 74399
L78763 74361
L78838 74361
" />
<path d="M79373 74886
L79424 74474
L79396 74399
L79326 74361
L79176 74361
L79096 74399
" />
<path d="M79377 74849
L79298 74886
L79110 74886
L79040 74849
L79012 74774
L79021 74699
L79068 74624
L79148 74586
L79335 74586
L79415 74549
" />
<path d="M79813 74361
L79747 74886
" />
<path d="M79804 74436
L79846 74399
L79926 74361
L80038 74361
L80108 74399
L80136 74474
L80085 74886
" />
<path d="M80427 74849
L80497 74886
L80647 74886
L80727 74849
L80774 74774
L80779 74736
L80750 74661
L80680 74624
L80568 74624
L80497 74586
L80469 74511
L80474 74474
L80521 74399
L80600 74361
L80713 74361
L80783 74399
" />
<path d="M81097 74886
L81163 74361
" />
<path d="M81196 74099
L81154 74136
L81186 74174
L81229 74136
L81196 74099
L81186 74174
" />
<path d="M81439 74849
L81510 74886
L81660 74886
L81739 74849
L81786 74774
L81791 74736
L81763 74661
L81693 74624
L81580 74624
L81510 74586
L81482 74511
L81486 74474
L81533 74399
L81613 74361
L81725 74361
L81796 74399
" />
<path d="M82063 74361
L82363 74361
" />
<path d="M82208 74099
L82124 74774
L82152 74849
L82222 74886
L82297 74886
" />
<path d="M82672 74886
L82602 74849
L82569 74811
L82541 74736
L82569 74511
L82616 74436
L82658 74399
L82738 74361
L82850 74361
L82921 74399
L82953 74436
L82981 74511
L82953 74736
L82906 74811
L82864 74849
L82785 74886
L82672 74886
" />
<path d="M83272 74886
L83338 74361
" />
<path d="M83319 74511
L83366 74436
L83408 74399
L83488 74361
L83563 74361
" />
<path d="M84350 74661
L84725 74661
" />
<path d="M84247 74886
L84608 74099
L84772 74886
" />
<path d="M85034 74886
L85133 74099
L85325 74661
L85658 74099
L85559 74886
" />
<path d="M85934 74886
L86033 74099
L86333 74099
L86403 74136
L86436 74174
L86464 74249
L86450 74361
L86403 74436
L86361 74474
L86281 74511
L85981 74511
" />
</g>
<g style="fill:#000000; fill-opacity:0.0; 
stroke:#000000; stroke-width:39.3701; stroke-opacity:1; 
stroke-linecap:round; stroke-linejoin:round;">
</g>
<g style="fill:#000000; fill-opacity:0.0; 
stroke:#000000; stroke-width:59.0551; stroke-opacity:1; 
stroke-linecap:round; stroke-linejoin:round;">
<path d="M70446 73070
L70249 73070
" />
<path d="M70249 73380
L70249 72789
L70530 72789
" />
<path d="M70755 73380
L70755 72986
" />
<path d="M70755 72789
L70727 72817
L70755 72845
L70784 72817
L70755 72789
L70755 72845
" />
<path d="M71121 73380
L71065 73352
L71037 73295
L71037 72789
" />
<path d="M71571 73352
L71515 73380
L71402 73380
L71346 73352
L71318 73295
L71318 73070
L71346 73014
L71402 72986
L71515 72986
L71571 73014
L71599 73070
L71599 73127
L71318 73183
" />
<path d="M71852 73323
L71880 73352
L71852 73380
L71824 73352
L71852 73323
L71852 73380
" />
<path d="M71852 73014
L71880 73042
L71852 73070
L71824 73042
L71852 73014
L71852 73070
" />
<path d="M72555 73352
L72640 73380
L72780 73380
L72836 73352
L72865 73323
L72893 73267
L72893 73211
L72865 73155
L72836 73127
L72780 73099
L72668 73070
L72611 73042
L72583 73014
L72555 72958
L72555 72902
L72583 72845
L72611 72817
L72668 72789
L72808 72789
L72893 72817
" />
<path d="M73146 73380
L73146 72986
" />
<path d="M73146 72789
L73118 72817
L73146 72845
L73174 72817
L73146 72789
L73146 72845
" />
<path d="M73427 72986
L73427 73380
" />
<path d="M73427 73042
L73455 73014
L73511 72986
L73596 72986
L73652 73014
L73680 73070
L73680 73380
" />
<path d="M74214 72986
L74214 73464
L74186 73520
L74158 73548
L74102 73577
L74018 73577
L73961 73548
" />
<path d="M74214 73352
L74158 73380
L74046 73380
L73989 73352
L73961 73323
L73933 73267
L73933 73099
L73961 73042
L73989 73014
L74046 72986
L74158 72986
L74214 73014
" />
<path d="M74721 73352
L74664 73380
L74552 73380
L74496 73352
L74467 73295
L74467 73070
L74496 73014
L74552 72986
L74664 72986
L74721 73014
L74749 73070
L74749 73127
L74467 73183
" />
<path d="M74861 73436
L75311 73436
" />
<path d="M75367 72986
L75592 72986
" />
<path d="M75452 72789
L75452 73295
L75480 73352
L75536 73380
L75592 73380
" />
<path d="M75789 73380
L75789 72986
" />
<path d="M75789 73099
L75817 73042
L75845 73014
L75902 72986
L75958 72986
" />
<path d="M76408 73380
L76408 73070
L76380 73014
L76323 72986
L76211 72986
L76155 73014
" />
<path d="M76408 73352
L76352 73380
L76211 73380
L76155 73352
L76127 73295
L76127 73239
L76155 73183
L76211 73155
L76352 73155
L76408 73127
" />
<path d="M76689 72986
L76689 73380
" />
<path d="M76689 73042
L76717 73014
L76773 72986
L76858 72986
L76914 73014
L76942 73070
L76942 73380
" />
<path d="M77195 73352
L77251 73380
L77364 73380
L77420 73352
L77448 73295
L77448 73267
L77420 73211
L77364 73183
L77280 73183
L77223 73155
L77195 73099
L77195 73070
L77223 73014
L77280 72986
L77364 72986
L77420 73014
" />
<path d="M77701 73380
L77701 72986
" />
<path d="M77701 72789
L77673 72817
L77701 72845
L77730 72817
L77701 72789
L77701 72845
" />
<path d="M77955 73352
L78011 73380
L78123 73380
L78180 73352
L78208 73295
L78208 73267
L78180 73211
L78123 73183
L78039 73183
L77983 73155
L77955 73099
L77955 73070
L77983 73014
L78039 72986
L78123 72986
L78180 73014
" />
<path d="M78376 72986
L78601 72986
" />
<path d="M78461 72789
L78461 73295
L78489 73352
L78545 73380
L78601 73380
" />
<path d="M78883 73380
L78826 73352
L78798 73323
L78770 73267
L78770 73099
L78798 73042
L78826 73014
L78883 72986
L78967 72986
L79023 73014
L79051 73042
L79079 73099
L79079 73267
L79051 73323
L79023 73352
L78967 73380
L78883 73380
" />
<path d="M79332 73380
L79332 72986
" />
<path d="M79332 73099
L79361 73042
L79389 73014
L79445 72986
L79501 72986
" />
<path d="M79557 73436
L80007 73436
" />
<path d="M80120 73211
L80401 73211
" />
<path d="M80064 73380
L80260 72789
L80457 73380
" />
<path d="M80654 73380
L80654 72789
L80851 73211
L81048 72789
L81048 73380
" />
<path d="M81329 73380
L81329 72789
L81554 72789
L81610 72817
L81638 72845
L81667 72902
L81667 72986
L81638 73042
L81610 73070
L81554 73099
L81329 73099
" />
<path d="M81920 73323
L81948 73352
L81920 73380
L81892 73352
L81920 73323
L81920 73380
" />
<path d="M82201 73380
L82201 72789
" />
<path d="M82257 73155
L82426 73380
" />
<path d="M82426 72986
L82201 73211
" />
<path d="M82679 73380
L82679 72986
" />
<path d="M82679 72789
L82651 72817
L82679 72845
L82707 72817
L82679 72789
L82679 72845
" />
<path d="M83213 73352
L83157 73380
L83045 73380
L82988 73352
L82960 73323
L82932 73267
L82932 73099
L82960 73042
L82988 73014
L83045 72986
L83157 72986
L83213 73014
" />
<path d="M83719 73380
L83719 73070
L83691 73014
L83635 72986
L83523 72986
L83466 73014
" />
<path d="M83719 73352
L83663 73380
L83523 73380
L83466 73352
L83438 73295
L83438 73239
L83466 73183
L83523 73155
L83663 73155
L83719 73127
" />
<path d="M84254 73380
L84254 72789
" />
<path d="M84254 73352
L84197 73380
L84085 73380
L84029 73352
L84001 73323
L83973 73267
L83973 73099
L84001 73042
L84029 73014
L84085 72986
L84197 72986
L84254 73014
" />
<path d="M84394 73436
L84844 73436
" />
<path d="M84985 72986
L84985 73577
" />
<path d="M84985 73014
L85041 72986
L85154 72986
L85210 73014
L85238 73042
L85266 73099
L85266 73267
L85238 73323
L85210 73352
L85154 73380
L85041 73380
L84985 73352
" />
<path d="M85772 73352
L85716 73380
L85604 73380
L85547 73352
L85519 73323
L85491 73267
L85491 73099
L85519 73042
L85547 73014
L85604 72986
L85716 72986
L85772 73014
" />
<path d="M86025 73380
L86025 72789
" />
<path d="M86025 73014
L86082 72986
L86194 72986
L86250 73014
L86278 73042
L86307 73099
L86307 73267
L86278 73323
L86250 73352
L86194 73380
L86082 73380
L86025 73352
" />
</g>
<g style="fill:#000000; fill-opacity:0.0; 
stroke:#000000; stroke-width:39.3701; stroke-opacity:1; 
stroke-linecap:round; stroke-linejoin:round;">
</g>
<g style="fill:#000000; fill-opacity:0.0; 
stroke:#000000; stroke-width:59.0551; stroke-opacity:1; 
stroke-linecap:round; stroke-linejoin:round;">
<path d="M69685 71459
L112205 71459
" />
</g>
<g style="fill:#000000; fill-opacity:0.0; 
stroke:#000000; stroke-width:39.3701; stroke-opacity:1; 
stroke-linecap:round; stroke-linejoin:round;">
</g>
<g style="fill:#000000; fill-opacity:0.0; 
stroke:#000000; stroke-width:59.0551; stroke-opacity:1; 
stroke-linecap:round; stroke-linejoin:round;">
<path d="M70221 72289
L70305 72317
L70446 72317
L70502 72289
L70530 72260
L70559 72204
L70559 72148
L70530 72092
L70502 72064
L70446 72036
L70334 72007
L70277 71979
L70249 71951
L70221 71895
L70221 71839
L70249 71782
L70277 71754
L70334 71726
L70474 71726
L70559 71754
" />
<path d="M70812 72317
L70812 71726
" />
<path d="M71065 72317
L71065 72007
L71037 71951
L70980 71923
L70896 71923
L70840 71951
L70812 71979
" />
<path d="M71571 72289
L71515 72317
L71402 72317
L71346 72289
L71318 72232
L71318 72007
L71346 71951
L71402 71923
L71515 71923
L71571 71951
L71599 72007
L71599 72064
L71318 72120
" />
<path d="M72077 72289
L72021 72317
L71908 72317
L71852 72289
L71824 72232
L71824 72007
L71852 71951
L71908 71923
L72021 71923
L72077 71951
L72105 72007
L72105 72064
L71824 72120
" />
<path d="M72274 71923
L72499 71923
" />
<path d="M72358 71726
L72358 72232
L72386 72289
L72443 72317
L72499 72317
" />
<path d="M72696 72260
L72724 72289
L72696 72317
L72668 72289
L72696 72260
L72696 72317
" />
<path d="M72696 71951
L72724 71979
L72696 72007
L72668 71979
L72696 71951
L72696 72007
" />
</g>
<g style="fill:#000000; fill-opacity:0.0; 
stroke:#000000; stroke-width:39.3701; stroke-opacity:1; 
stroke-linecap:round; stroke-linejoin:round;">
</g>
<g style="fill:#000000; fill-opacity:0.0; 
stroke:#000000; stroke-width:59.0551; stroke-opacity:1; 
stroke-linecap:round; stroke-linejoin:round;">
<path d="M77559 75396
L77559 76577
" />
</g>
<g style="fill:#000000; fill-opacity:0.0; 
stroke:#000000; stroke-width:39.3701; stroke-opacity:1; 
stroke-linecap:round; stroke-linejoin:round;">
</g>
<g style="fill:#000000; fill-opacity:0.0; 
stroke:#000000; stroke-width:59.0551; stroke-opacity:1; 
stroke-linecap:round; stroke-linejoin:round;">
<path d="M102756 75396
L102756 77955
" />
<g >
</g>
<g style="fill:#840000; fill-opacity:0.0; 
stroke:#840000; stroke-width:59.0551; stroke-opacity:1; 
stroke-linecap:round; stroke-linejoin:round;">
</g>
<g style="fill:#840000; fill-opacity:0.0; 
stroke:#840000; stroke-width:0; stroke-opacity:1; 
stroke-linecap:round; stroke-linejoin:round;">
</g>
<g style="fill:#840000; fill-opacity:1.0; 
stroke:#840000; stroke-width:0; stroke-opacity:1; 
stroke-linecap:round; stroke-linejoin:round;">
<path style="fill:#840000; fill-opacity:1.0; 
stroke:#840000; stroke-width:0; stroke-opacity:1; 
stroke-linecap:round; stroke-linejoin:round;fill-rule:evenodd;"
d="M 47942,40216
47942,41003
46958,41003
46958,40216
47942,40216
Z" /> 
<path style="fill:#840000; fill-opacity:1.0; 
stroke:#840000; stroke-width:0; stroke-opacity:1; 
stroke-linecap:round; stroke-linejoin:round;fill-rule:evenodd;"
d="M 44537,39370
44537,40157
43553,40157
43553,39370
44537,39370
Z" /> 
<path style="fill:#840000; fill-opacity:1.0; 
stroke:#840000; stroke-width:0; stroke-opacity:1; 
stroke-linecap:round; stroke-linejoin:round;fill-rule:evenodd;"
d="M 47942,38523
47942,39311
46958,39311
46958,38523
47942,38523
Z" /> 
</g>
<g >
</g>
<g style="fill:#848400; fill-opacity:1.0; 
stroke:#848400; stroke-width:0; stroke-opacity:1; 
stroke-linecap:round; stroke-linejoin:round;">
<path style="fill:#848400; fill-opacity:1.0; 
stroke:#848400; stroke-width:0; stroke-opacity:1; 
stroke-linecap:round; stroke-linejoin:round;fill-rule:evenodd;"
d="M 46732,36692
46732,37322
46102,37322
46102,36692
46732,36692
Z" /> 
<circle cx="45433.1" cy="37007.9" r="314.961" /> 
</g>
<g style="fill:#848400; fill-opacity:1.0; 
stroke:#848400; stroke-width:39.3701; stroke-opacity:1; 
stroke-linecap:round; stroke-linejoin:round;">
</g>
<g >
</g>
<g style="fill:#848400; fill-opacity:1.0; 
stroke:#848400; stroke-width:39.3701; stroke-opacity:1; 
stroke-linecap:round; stroke-linejoin:round;">
</g>
<g style="fill:#848400; fill-opacity:1.0; 
stroke:#848400; stroke-width:0; stroke-opacity:1; 
stroke-linecap:round; stroke-linejoin:round;">
<path style="fill:#848400; fill-opacity:1.0; 
stroke:#848400; stroke-width:0; stroke-opacity:1; 
stroke-linecap:round; stroke-linejoin:round;fill-rule:evenodd;"
d="M 39547,39192
39547,39862
38877,39862
38877,39192
39547,39192
Z" /> 
</g>
<g style="fill:#848400; fill-opacity:1.0; 
stroke:#848400; stroke-width:669.291; stroke-opacity:1; 
stroke-linecap:round; stroke-linejoin:round;">
</g>
<g style="fill:#848400; fill-opacity:0.0; 
stroke:#848400; stroke-width:669.291; stroke-opacity:1; 
stroke-linecap:round; stroke-linejoin:round;">
<path d="M39212 38527
L39212 38527
" />
<path d="M39212 37527
L39212 37527
" />
</g>
<g >
</g>
<g style="fill:#848400; fill-opacity:0.0; 
stroke:#848400; stroke-width:669.291; stroke-opacity:1; 
stroke-linecap:round; stroke-linejoin:round;">
</g>
<g style="fill:#848400; fill-opacity:0.0; 
stroke:#848400; stroke-width:0; stroke-opacity:1; 
stroke-linecap:round; stroke-linejoin:round;">
</g>
<g style="fill:#848400; fill-opacity:1.0; 
stroke:#848400; stroke-width:0; stroke-opacity:1; 
stroke-linecap:round; stroke-linejoin:round;">
<path style="fill:#848400; fill-opacity:1.0; 
stroke:#848400; stroke-width:0; stroke-opacity:1; 
stroke-linecap:round; stroke-linejoin:round;fill-rule:evenodd;"
d="M 47893,36791
47893,36122
48562,36122
48562,36791
47893,36791
Z" /> 
</g>
<g style="fill:#848400; fill-opacity:1.0; 
stroke:#848400; stroke-width:669.291; stroke-opacity:1; 
stroke-linecap:round; stroke-linejoin:round;">
</g>
<g style="fill:#848400; fill-opacity:0.0; 
stroke:#848400; stroke-width:669.291; stroke-opacity:1; 
stroke-linecap:round; stroke-linejoin:round;">
<path d="M48228 37456
L48228 37456
" />
</g>
<g >
</g>
<g style="fill:#848400; fill-opacity:0.0; 
stroke:#848400; stroke-width:669.291; stroke-opacity:1; 
stroke-linecap:round; stroke-linejoin:round;">
</g>
<g style="fill:#848400; fill-opacity:1.0; 
stroke:#848400; stroke-width:0; stroke-opacity:1; 
stroke-linecap:round; stroke-linejoin:round;">
<circle cx="42744.1" cy="37980.3" r="255.906" /> 
</g>
<g style="fill:#848400; fill-opacity:1.0; 
stroke:#848400; stroke-width:39.3701; stroke-opacity:1; 
stroke-linecap:round; stroke-linejoin:round;">
</g>
<g style="fill:#848400; fill-opacity:1.0; 
stroke:#848400; stroke-width:0; stroke-opacity:1; 
stroke-linecap:round; stroke-linejoin:round;">
<circle cx="42244.1" cy="38480.3" r="255.906" /> 
</g>
<g style="fill:#848400; fill-opacity:1.0; 
stroke:#848400; stroke-width:39.3701; stroke-opacity:1; 
stroke-linecap:round; stroke-linejoin:round;">
</g>
<g style="fill:#848400; fill-opacity:1.0; 
stroke:#848400; stroke-width:0; stroke-opacity:1; 
stroke-linecap:round; stroke-linejoin:round;">
<path style="fill:#848400; fill-opacity:1.0; 
stroke:#848400; stroke-width:0; stroke-opacity:1; 
stroke-linecap:round; stroke-linejoin:round;fill-rule:evenodd;"
d="M 41988,37736
41988,37224
42500,37224
42500,37736
41988,37736
Z" /> 
</g>
<g >
</g>
<g style="fill:#840000; fill-opacity:1.0; 
stroke:#840000; stroke-width:0; stroke-opacity:1; 
stroke-linecap:round; stroke-linejoin:round;">
<path style="fill:#840000; fill-opacity:1.0; 
stroke:#840000; stroke-width:0; stroke-opacity:1; 
stroke-linecap:round; stroke-linejoin:round;fill-rule:evenodd;"
d="M 40493,38356
40501,38357
40509,38360
40517,38362
40525,38366
40532,38370
40539,38375
40545,38381
40551,38387
40556,38394
40560,38401
40564,38409
40567,38417
40569,38425
40570,38433
40570,38442
40570,38644
40570,38652
40569,38660
40567,38669
40564,38677
40560,38684
40556,38692
40551,38698
40545,38705
40539,38710
40532,38715
40525,38720
40517,38723
40509,38726
40501,38728
40493,38729
40484,38730
40312,38730
40304,38729
40295,38728
40287,38726
40279,38723
40271,38720
40264,38715
40257,38710
40251,38705
40245,38698
40240,38692
40236,38684
40232,38677
40230,38669
40228,38660
40226,38652
40226,38644
40226,38442
40226,38433
40228,38425
40230,38417
40232,38409
40236,38401
40240,38394
40245,38387
40251,38381
40257,38375
40264,38370
40271,38366
40279,38362
40287,38360
40295,38357
40304,38356
40312,38356
40484,38356
40493,38356
Z" /> 
<path style="fill:#840000; fill-opacity:1.0; 
stroke:#840000; stroke-width:0; stroke-opacity:1; 
stroke-linecap:round; stroke-linejoin:round;fill-rule:evenodd;"
d="M 41113,38356
41121,38357
41129,38360
41137,38362
41145,38366
41152,38370
41159,38375
41165,38381
41171,38387
41176,38394
41180,38401
41184,38409
41187,38417
41189,38425
41190,38433
41190,38442
41190,38644
41190,38652
41189,38660
41187,38669
41184,38677
41180,38684
41176,38692
41171,38698
41165,38705
41159,38710
41152,38715
41145,38720
41137,38723
41129,38726
41121,38728
41113,38729
41104,38730
40932,38730
40924,38729
40915,38728
40907,38726
40899,38723
40891,38720
40884,38715
40877,38710
40871,38705
40866,38698
40860,38692
40856,38684
40853,38677
40850,38669
40848,38660
40846,38652
40846,38644
40846,38442
40846,38433
40848,38425
40850,38417
40853,38409
40856,38401
40860,38394
40866,38387
40871,38381
40877,38375
40884,38370
40891,38366
40899,38362
40907,38360
40915,38357
40924,38356
40932,38356
41104,38356
41113,38356
Z" /> 
</g>
<g >
</g>
<g style="fill:#840000; fill-opacity:1.0; 
stroke:#840000; stroke-width:0; stroke-opacity:1; 
stroke-linecap:round; stroke-linejoin:round;">
<path style="fill:#840000; fill-opacity:1.0; 
stroke:#840000; stroke-width:0; stroke-opacity:1; 
stroke-linecap:round; stroke-linejoin:round;fill-rule:evenodd;"
d="M 44346,36270
44354,36271
44363,36273
44371,36276
44378,36279
44385,36284
44392,36289
44398,36294
44404,36301
44409,36307
44414,36315
44417,36322
44420,36330
44422,36339
44423,36347
44424,36355
44424,36557
44423,36566
44422,36574
44420,36582
44417,36590
44414,36598
44409,36605
44404,36612
44398,36618
44392,36624
44385,36629
44378,36633
44371,36637
44363,36639
44354,36642
44346,36643
44338,36643
44165,36643
44157,36643
44149,36642
44140,36639
44132,36637
44125,36633
44117,36629
44111,36624
44104,36618
44099,36612
44094,36605
44089,36598
44086,36590
44083,36582
44081,36574
44080,36566
44079,36557
44079,36355
44080,36347
44081,36339
44083,36330
44086,36322
44089,36315
44094,36307
44099,36301
44104,36294
44111,36289
44117,36284
44125,36279
44132,36276
44140,36273
44149,36271
44157,36270
44165,36269
44338,36269
44346,36270
Z" /> 
<path style="fill:#840000; fill-opacity:1.0; 
stroke:#840000; stroke-width:0; stroke-opacity:1; 
stroke-linecap:round; stroke-linejoin:round;fill-rule:evenodd;"
d="M 43726,36270
43734,36271
43743,36273
43750,36276
43758,36279
43765,36284
43772,36289
43778,36294
43784,36301
43789,36307
43793,36315
43797,36322
43800,36330
43802,36339
43803,36347
43804,36355
43804,36557
43803,36566
43802,36574
43800,36582
43797,36590
43793,36598
43789,36605
43784,36612
43778,36618
43772,36624
43765,36629
43758,36633
43750,36637
43743,36639
43734,36642
43726,36643
43718,36643
43545,36643
43537,36643
43528,36642
43520,36639
43512,36637
43505,36633
43497,36629
43491,36624
43484,36618
43479,36612
43474,36605
43469,36598
43466,36590
43463,36582
43461,36574
43460,36566
43459,36557
43459,36355
43460,36347
43461,36339
43463,36330
43466,36322
43469,36315
43474,36307
43479,36301
43484,36294
43491,36289
43497,36284
43505,36279
43512,36276
43520,36273
43528,36271
43537,36270
43545,36269
43718,36269
43726,36270
Z" /> 
</g>
<g >
</g>
<g style="fill:#840000; fill-opacity:1.0; 
stroke:#840000; stroke-width:0; stroke-opacity:1; 
stroke-linecap:round; stroke-linejoin:round;">
<path style="fill:#840000; fill-opacity:1.0; 
stroke:#840000; stroke-width:0; stroke-opacity:1; 
stroke-linecap:round; stroke-linejoin:round;fill-rule:evenodd;"
d="M 40493,37333
40501,37334
40509,37336
40517,37339
40525,37342
40532,37347
40539,37352
40545,37357
40551,37364
40556,37370
40560,37378
40564,37385
40567,37393
40569,37401
40570,37410
40570,37418
40570,37620
40570,37629
40569,37637
40567,37645
40564,37653
40560,37661
40556,37668
40551,37675
40545,37681
40539,37687
40532,37692
40525,37696
40517,37700
40509,37702
40501,37705
40493,37706
40484,37706
40312,37706
40304,37706
40295,37705
40287,37702
40279,37700
40271,37696
40264,37692
40257,37687
40251,37681
40245,37675
40240,37668
40236,37661
40232,37653
40230,37645
40228,37637
40226,37629
40226,37620
40226,37418
40226,37410
40228,37401
40230,37393
40232,37385
40236,37378
40240,37370
40245,37364
40251,37357
40257,37352
40264,37347
40271,37342
40279,37339
40287,37336
40295,37334
40304,37333
40312,37332
40484,37332
40493,37333
Z" /> 
<path style="fill:#840000; fill-opacity:1.0; 
stroke:#840000; stroke-width:0; stroke-opacity:1; 
stroke-linecap:round; stroke-linejoin:round;fill-rule:evenodd;"
d="M 41113,37333
41121,37334
41129,37336
41137,37339
41145,37342
41152,37347
41159,37352
41165,37357
41171,37364
41176,37370
41180,37378
41184,37385
41187,37393
41189,37401
41190,37410
41190,37418
41190,37620
41190,37629
41189,37637
41187,37645
41184,37653
41180,37661
41176,37668
41171,37675
41165,37681
41159,37687
41152,37692
41145,37696
41137,37700
41129,37702
41121,37705
41113,37706
41104,37706
40932,37706
40924,37706
40915,37705
40907,37702
40899,37700
40891,37696
40884,37692
40877,37687
40871,37681
40866,37675
40860,37668
40856,37661
40853,37653
40850,37645
40848,37637
40846,37629
40846,37620
40846,37418
40846,37410
40848,37401
40850,37393
40853,37385
40856,37378
40860,37370
40866,37364
40871,37357
40877,37352
40884,37347
40891,37342
40899,37339
40907,37336
40915,37334
40924,37333
40932,37332
41104,37332
41113,37333
Z" /> 
</g>
<g >
</g>
<g style="fill:#840000; fill-opacity:1.0; 
stroke:#840000; stroke-width:0; stroke-opacity:1; 
stroke-linecap:round; stroke-linejoin:round;">
<path style="fill:#840000; fill-opacity:1.0; 
stroke:#840000; stroke-width:0; stroke-opacity:1; 
stroke-linecap:round; stroke-linejoin:round;fill-rule:evenodd;"
d="M 40493,39478
40501,39480
40509,39482
40517,39484
40525,39488
40532,39492
40539,39497
40545,39503
40551,39509
40556,39516
40560,39523
40564,39531
40567,39539
40569,39547
40570,39556
40570,39564
40570,39766
40570,39774
40569,39783
40567,39791
40564,39799
40560,39806
40556,39814
40551,39820
40545,39827
40539,39832
40532,39837
40525,39842
40517,39845
40509,39848
40501,39850
40493,39851
40484,39852
40312,39852
40304,39851
40295,39850
40287,39848
40279,39845
40271,39842
40264,39837
40257,39832
40251,39827
40245,39820
40240,39814
40236,39806
40232,39799
40230,39791
40228,39783
40226,39774
40226,39766
40226,39564
40226,39556
40228,39547
40230,39539
40232,39531
40236,39523
40240,39516
40245,39509
40251,39503
40257,39497
40264,39492
40271,39488
40279,39484
40287,39482
40295,39480
40304,39478
40312,39478
40484,39478
40493,39478
Z" /> 
<path style="fill:#840000; fill-opacity:1.0; 
stroke:#840000; stroke-width:0; stroke-opacity:1; 
stroke-linecap:round; stroke-linejoin:round;fill-rule:evenodd;"
d="M 41113,39478
41121,39480
41129,39482
41137,39484
41145,39488
41152,39492
41159,39497
41165,39503
41171,39509
41176,39516
41180,39523
41184,39531
41187,39539
41189,39547
41190,39556
41190,39564
41190,39766
41190,39774
41189,39783
41187,39791
41184,39799
41180,39806
41176,39814
41171,39820
41165,39827
41159,39832
41152,39837
41145,39842
41137,39845
41129,39848
41121,39850
41113,39851
41104,39852
40932,39852
40924,39851
40915,39850
40907,39848
40899,39845
40891,39842
40884,39837
40877,39832
40871,39827
40866,39820
40860,39814
40856,39806
40853,39799
40850,39791
40848,39783
40846,39774
40846,39766
40846,39564
40846,39556
40848,39547
40850,39539
40853,39531
40856,39523
40860,39516
40866,39509
40871,39503
40877,39497
40884,39492
40891,39488
40899,39484
40907,39482
40915,39480
40924,39478
40932,39478
41104,39478
41113,39478
Z" /> 
</g>
<g >
</g>
<g style="fill:#840000; fill-opacity:1.0; 
stroke:#840000; stroke-width:0; stroke-opacity:1; 
stroke-linecap:round; stroke-linejoin:round;">
<path style="fill:#840000; fill-opacity:1.0; 
stroke:#840000; stroke-width:0; stroke-opacity:1; 
stroke-linecap:round; stroke-linejoin:round;fill-rule:evenodd;"
d="M 41113,36722
41121,36724
41129,36726
41137,36728
41145,36732
41152,36736
41159,36741
41165,36747
41171,36753
41176,36760
41180,36767
41184,36775
41187,36783
41189,36791
41190,36800
41190,36808
41190,37010
41190,37018
41189,37027
41187,37035
41184,37043
41180,37050
41176,37058
41171,37064
41165,37071
41159,37076
41152,37081
41145,37086
41137,37089
41129,37092
41121,37094
41113,37096
41104,37096
40932,37096
40924,37096
40915,37094
40907,37092
40899,37089
40891,37086
40884,37081
40877,37076
40871,37071
40866,37064
40860,37058
40856,37050
40853,37043
40850,37035
40848,37027
40846,37018
40846,37010
40846,36808
40846,36800
40848,36791
40850,36783
40853,36775
40856,36767
40860,36760
40866,36753
40871,36747
40877,36741
40884,36736
40891,36732
40899,36728
40907,36726
40915,36724
40924,36722
40932,36722
41104,36722
41113,36722
Z" /> 
<path style="fill:#840000; fill-opacity:1.0; 
stroke:#840000; stroke-width:0; stroke-opacity:1; 
stroke-linecap:round; stroke-linejoin:round;fill-rule:evenodd;"
d="M 40493,36722
40501,36724
40509,36726
40517,36728
40525,36732
40532,36736
40539,36741
40545,36747
40551,36753
40556,36760
40560,36767
40564,36775
40567,36783
40569,36791
40570,36800
40570,36808
40570,37010
40570,37018
40569,37027
40567,37035
40564,37043
40560,37050
40556,37058
40551,37064
40545,37071
40539,37076
40532,37081
40525,37086
40517,37089
40509,37092
40501,37094
40493,37096
40484,37096
40312,37096
40304,37096
40295,37094
40287,37092
40279,37089
40271,37086
40264,37081
40257,37076
40251,37071
40245,37064
40240,37058
40236,37050
40232,37043
40230,37035
40228,37027
40226,37018
40226,37010
40226,36808
40226,36800
40228,36791
40230,36783
40232,36775
40236,36767
40240,36760
40245,36753
40251,36747
40257,36741
40264,36736
40271,36732
40279,36728
40287,36726
40295,36724
40304,36722
40312,36722
40484,36722
40493,36722
Z" /> 
</g>
<g >
</g>
<g style="fill:#840000; fill-opacity:1.0; 
stroke:#840000; stroke-width:0; stroke-opacity:1; 
stroke-linecap:round; stroke-linejoin:round;">
<path style="fill:#840000; fill-opacity:1.0; 
stroke:#840000; stroke-width:0; stroke-opacity:1; 
stroke-linecap:round; stroke-linejoin:round;fill-rule:evenodd;"
d="M 42353,39242
42361,39243
42369,39245
42377,39248
42385,39252
42392,39256
42399,39261
42405,39267
42411,39273
42416,39280
42420,39287
42424,39295
42427,39303
42429,39311
42430,39319
42431,39328
42431,39500
42430,39508
42429,39517
42427,39525
42424,39533
42420,39541
42416,39548
42411,39555
42405,39561
42399,39567
42392,39572
42385,39576
42377,39580
42369,39582
42361,39584
42353,39586
42344,39586
42143,39586
42134,39586
42126,39584
42118,39582
42110,39580
42102,39576
42095,39572
42088,39567
42082,39561
42076,39555
42071,39548
42067,39541
42063,39533
42060,39525
42058,39517
42057,39508
42057,39500
42057,39328
42057,39319
42058,39311
42060,39303
42063,39295
42067,39287
42071,39280
42076,39273
42082,39267
42088,39261
42095,39256
42102,39252
42110,39248
42118,39245
42126,39243
42134,39242
42143,39242
42344,39242
42353,39242
Z" /> 
<path style="fill:#840000; fill-opacity:1.0; 
stroke:#840000; stroke-width:0; stroke-opacity:1; 
stroke-linecap:round; stroke-linejoin:round;fill-rule:evenodd;"
d="M 42353,39862
42361,39863
42369,39865
42377,39868
42385,39872
42392,39876
42399,39881
42405,39887
42411,39893
42416,39900
42420,39907
42424,39915
42427,39923
42429,39931
42430,39939
42431,39948
42431,40120
42430,40129
42429,40137
42427,40145
42424,40153
42420,40161
42416,40168
42411,40175
42405,40181
42399,40187
42392,40192
42385,40196
42377,40200
42369,40202
42361,40205
42353,40206
42344,40206
42143,40206
42134,40206
42126,40205
42118,40202
42110,40200
42102,40196
42095,40192
42088,40187
42082,40181
42076,40175
42071,40168
42067,40161
42063,40153
42060,40145
42058,40137
42057,40129
42057,40120
42057,39948
42057,39939
42058,39931
42060,39923
42063,39915
42067,39907
42071,39900
42076,39893
42082,39887
42088,39881
42095,39876
42102,39872
42110,39868
42118,39865
42126,39863
42134,39862
42143,39862
42344,39862
42353,39862
Z" /> 
</g>
<g >
</g>
<g >
</g>
<g style="fill:#840000; fill-opacity:1.0; 
stroke:#840000; stroke-width:0; stroke-opacity:1; 
stroke-linecap:round; stroke-linejoin:round;">
</g>
<g style="fill:#840000; fill-opacity:1.0; 
stroke:#840000; stroke-width:98.4252; stroke-opacity:1; 
stroke-linecap:round; stroke-linejoin:round;">
</g>
<g style="fill:#840000; fill-opacity:0.0; 
stroke:#840000; stroke-width:98.4252; stroke-opacity:1; 
stroke-linecap:round; stroke-linejoin:round;">
<path d="M40382 38527
L40398 38543
" />
<path d="M39212 38527
L40382 38527
" />
<path d="M40979 38503
L41018 38543
" />
<path d="M41023 38548
L41018 38543
" />
<path d="M41023 39217
L41023 38548
" />
<path d="M42382 37980
L42379 37977
" />
<path d="M42744 37980
L42382 37980
" />
<path d="M41146 37977
L41018 37849
" />
<path d="M41156 37977
L41146 37977
" />
<path d="M41018 37977
L41018 37849
" />
<path d="M41156 37977
L41018 37977
" />
<path d="M42379 37977
L41156 37977
" />
<path d="M41156 37977
L41018 38115
" />
<path d="M41018 38543
L41018 38115
" />
<path d="M41018 38115
L41018 37977
" />
<path d="M41018 37849
L41018 37519
" />
<path d="M41018 39438
L41018 38543
" />
<path d="M41018 39665
L41018 39438
" />
<path d="M47352 38917
L47450 38917
" />
<path d="M46417 37007
L46417 37982
" />
<path d="M46417 37421
L46417 37007
" />
<path d="M46417 38474
L46417 37421
" />
<path d="M46860 38917
L46417 38474
" />
<path d="M47450 38917
L46860 38917
" />
<path d="M47795 36456
L48228 36456
" />
<path d="M44773 36456
L45590 36456
" />
<path d="M48228 36456
L45590 36456
" />
<path d="M45590 36456
L45236 36456
" />
<path d="M44773 36456
L44251 36456
" />
<path d="M42244 37116
L42244 37125
" />
<path d="M42244 37480
L42244 37125
" />
<path d="M42298 37062
L42303 37066
" />
<path d="M42189 37062
L42298 37062
" />
<path d="M42244 37125
L42303 37066
" />
<path d="M42189 37062
L42244 37116
" />
<path d="M42027 36909
L42081 36963
" />
<path d="M41018 36909
L42027 36909
" />
<path d="M42027 36909
L42244 37125
" />
<path d="M42303 37066
L42460 36909
" />
<path d="M42027 36909
L42145 36909
" />
<path d="M42244 37007
L42342 36909
" />
<path d="M42342 36909
L42460 36909
" />
<path d="M42145 36909
L42342 36909
" />
<path d="M42244 37007
L42298 37062
" />
<path d="M42145 36909
L42244 37007
" />
<path d="M43420 36456
L42913 36456
" />
<path d="M43631 36456
L43420 36456
" />
<path d="M42460 36909
L42913 36456
" />
</g>
<g style="fill:#840000; fill-opacity:0.0; 
stroke:#840000; stroke-width:157.48; stroke-opacity:1; 
stroke-linecap:round; stroke-linejoin:round;">
<path d="M40390 37527
L40398 37519
" />
<path d="M39212 37527
L40390 37527
" />
<path d="M40418 37500
L40398 37519
" />
<path d="M40398 37519
L40398 36909
" />
</g>
<g style="fill:#840000; fill-opacity:0.0; 
stroke:#840000; stroke-width:98.4252; stroke-opacity:1; 
stroke-linecap:round; stroke-linejoin:round;">
<path d="M42401 39414
L42918 39414
" />
<path d="M43267 39763
L44045 39763
" />
<path d="M42918 39414
L43267 39763
" />
<path d="M42244 39414
L42244 38480
" />
</g>
<g >
</g>
<g style="fill:#840000; fill-opacity:0.0; 
stroke:#840000; stroke-width:98.4252; stroke-opacity:1; 
stroke-linecap:round; stroke-linejoin:round;">
</g>
<g style="fill:#840000; fill-opacity:1.0; 
stroke:#840000; stroke-width:100; stroke-opacity:1; 
stroke-linecap:round; stroke-linejoin:round;">
<path style="fill:#840000; fill-opacity:1.0; 
stroke:#840000; stroke-width:100; stroke-opacity:1; 
stroke-linecap:round; stroke-linejoin:round;fill-rule:evenodd;"
d="M 49052,41178
38348,41178
38348,40206
41906,40206
41909,40236
41917,40264
41931,40290
41950,40313
41973,40332
41999,40345
42027,40354
42057,40357
42156,40356
42194,40319
42194,40084
42294,40084
42294,40319
42331,40356
42431,40357
42460,40354
42488,40345
42514,40332
42537,40313
42556,40290
42570,40264
42578,40236
42581,40206
42581,40121
42543,40084
42294,40084
42194,40084
41944,40084
41907,40121
41906,40206
38348,40206
38348,39862
38727,39862
38730,39891
38738,39919
38752,39945
38771,39968
38794,39987
38820,40001
38848,40010
38877,40012
39125,40012
39162,39974
39162,39577
39262,39577
39262,39974
39300,40012
39547,40012
39576,40010
39604,40001
39630,39987
39653,39968
39672,39945
39686,39919
39695,39891
39697,39862
39697,39852
40075,39852
40078,39881
40087,39910
40101,39936
40119,39958
40142,39977
40168,39991
40196,40000
40226,40003
40311,40002
40348,39964
40348,39715
40113,39715
40076,39752
40075,39852
39697,39852
39697,39615
39659,39577
39262,39577
39162,39577
38765,39577
38727,39615
38727,39862
38348,39862
38348,39478
40075,39478
40076,39577
40113,39615
40348,39615
40348,39365
40311,39328
40226,39327
40196,39330
40168,39339
40142,39353
40119,39371
40101,39394
40087,39420
40078,39448
40075,39478
38348,39478
38348,39192
38727,39192
38727,39440
38765,39477
39162,39477
39162,39080
39262,39080
39262,39477
39659,39477
39697,39440
39697,39192
39695,39163
39686,39135
39672,39109
39653,39086
39630,39067
39604,39053
39576,39045
39547,39042
39300,39042
39262,39080
39162,39080
39125,39042
38877,39042
38848,39045
38820,39053
38794,39067
38771,39086
38752,39109
38738,39135
38730,39163
38727,39192
38348,39192
38348,37527
38725,37527
38734,37622
38762,37713
38807,37798
38868,37871
38942,37932
39026,37977
39117,38005
39188,38012
39236,38012
39307,38005
39398,37977
39483,37932
39556,37871
39617,37798
39639,37756
40118,37756
40145,37788
40180,37817
40221,37839
40266,37852
40312,37857
40484,37857
40530,37852
40575,37839
40616,37817
40652,37788
40681,37752
40703,37711
40708,37694
40713,37711
40735,37752
40765,37788
40800,37817
40819,37827
40819,37839
40818,37849
40819,37859
40819,37967
40818,37977
40819,37987
40819,38105
40818,38115
40819,38124
40819,38124
40819,38124
40819,38235
40800,38245
40765,38274
40735,38310
40713,38351
40708,38368
40703,38351
40681,38310
40652,38274
40616,38245
40575,38223
40530,38210
40484,38205
40312,38205
40266,38210
40221,38223
40180,38245
40145,38274
40115,38310
40106,38328
39655,38328
39617,38257
39556,38183
39483,38122
39398,38077
39307,38049
39236,38042
39188,38042
39117,38049
39026,38077
38942,38122
38868,38183
38807,38257
38762,38341
38734,38432
38725,38527
38734,38622
38762,38713
38807,38798
38868,38871
38942,38932
39026,38977
39117,39005
39188,39012
39236,39012
39307,39005
39398,38977
39483,38932
39556,38871
39617,38798
39655,38726
40091,38726
40093,38734
40115,38775
40145,38811
40180,38841
40221,38863
40266,38876
40312,38881
40484,38881
40530,38876
40575,38863
40616,38841
40652,38811
40681,38775
40703,38734
40708,38718
40713,38734
40735,38775
40765,38811
40800,38841
40819,38851
40819,39357
40800,39367
40765,39396
40735,39432
40719,39462
40718,39448
40710,39420
40696,39394
40677,39371
40654,39353
40628,39339
40600,39330
40570,39327
40486,39328
40448,39365
40448,39615
40456,39615
40456,39715
40448,39715
40448,39964
40486,40002
40570,40003
40600,40000
40628,39991
40654,39977
40677,39958
40696,39936
40710,39910
40718,39881
40719,39868
40735,39897
40765,39933
40800,39963
40841,39985
40886,39998
40932,40003
41104,40003
41151,39998
41195,39985
41236,39963
41272,39933
41301,39897
41323,39856
41337,39812
41341,39766
41341,39564
41337,39518
41323,39473
41301,39432
41272,39396
41236,39367
41217,39357
41217,39263
41219,39256
41222,39227
41222,38848
41236,38841
41272,38811
41301,38775
41323,38734
41337,38690
41341,38644
41341,38442
41337,38396
41323,38351
41301,38310
41272,38274
41236,38245
41217,38235
41217,38197
41239,38176
41973,38176
41928,38221
41884,38288
41853,38361
41838,38440
41838,38520
41853,38598
41884,38672
41928,38739
41985,38795
42044,38835
42044,39113
42011,39131
41975,39160
41946,39196
41924,39237
41910,39282
41906,39328
41906,39500
41910,39546
41924,39591
41946,39632
41975,39667
42011,39697
42040,39713
42027,39714
41999,39722
41973,39736
41950,39755
41931,39778
41917,39804
41909,39832
41906,39862
41907,39946
41944,39984
42194,39984
42194,39976
42294,39976
42294,39984
42543,39984
42581,39946
42581,39862
42578,39832
42570,39804
42556,39778
42537,39755
42514,39736
42488,39722
42460,39714
42447,39713
42476,39697
42512,39667
42541,39632
42551,39613
42835,39613
43119,39897
43126,39905
43156,39930
43187,39946
43191,39948
43228,39960
43267,39963
43277,39962
43402,39962
43402,40157
43405,40186
43413,40215
43427,40241
43446,40264
43469,40282
43495,40296
43523,40305
43553,40308
44537,40308
44566,40305
44595,40296
44621,40282
44643,40264
44662,40241
44675,40216
46807,40216
46807,41003
46810,41033
46819,41061
46833,41087
46852,41110
46874,41129
46900,41143
46929,41151
46958,41154
47942,41154
47972,41151
48000,41143
48026,41129
48049,41110
48068,41087
48082,41061
48090,41033
48093,41003
48093,40216
48090,40187
48082,40158
48068,40132
48049,40109
48026,40091
48000,40077
47972,40068
47942,40065
46958,40065
46929,40068
46900,40077
46874,40091
46852,40109
46833,40132
46819,40158
46810,40187
46807,40216
44675,40216
44676,40215
44685,40186
44688,40157
44688,39370
44685,39340
44676,39312
44662,39286
44643,39263
44621,39244
44595,39230
44566,39222
44537,39219
43553,39219
43523,39222
43495,39230
43469,39244
43446,39263
43427,39286
43413,39312
43405,39340
43402,39370
43402,39564
43350,39564
43066,39280
43059,39272
43029,39247
42994,39229
42957,39218
42928,39215
42928,39215
42918,39214
42908,39215
42551,39215
42541,39196
42512,39160
42476,39131
42443,39113
42443,38835
42502,38795
42559,38739
42603,38672
42634,38598
42650,38520
42650,38440
42636,38372
42704,38386
42784,38386
42862,38370
42936,38340
43002,38295
43059,38239
43103,38172
43134,38098
43150,38020
43150,37940
43134,37861
43103,37788
43059,37721
43002,37665
42936,37620
42862,37590
42784,37574
42704,37574
42650,37585
42650,37345
45166,37345
45200,37413
45283,37450
45373,37471
45464,37474
45555,37458
45640,37426
45665,37413
45699,37345
45433,37078
45166,37345
42650,37345
42650,37224
42647,37195
42639,37166
42625,37140
42606,37117
42583,37099
42563,37088
42594,37057
42602,37050
42608,37043
42612,37039
44966,37039
44982,37129
45014,37215
45027,37240
45095,37274
45362,37007
45503,37007
45770,37274
45838,37240
45875,37156
45896,37067
45899,36976
45884,36885
45851,36800
45838,36775
45770,36741
45503,37007
45362,37007
45095,36741
45027,36775
44990,36858
44969,36948
44966,37039
42612,37039
42995,36655
43331,36655
43348,36689
43378,36725
43414,36754
43455,36776
43499,36789
43545,36794
43718,36794
43764,36789
43808,36776
43849,36754
43885,36725
43914,36689
43936,36648
43941,36631
43947,36648
43968,36689
43998,36725
44034,36754
44075,36776
44119,36789
44165,36794
44338,36794
44384,36789
44428,36776
44469,36754
44505,36725
44535,36689
44552,36655
45174,36655
45166,36670
45433,36937
45699,36670
45692,36655
45956,36655
45954,36663
45951,36692
45951,37322
45954,37352
45963,37380
45977,37406
45995,37429
46018,37448
46044,37462
46072,37470
46102,37473
46218,37473
46218,37497
46218,38464
46217,38474
46218,38484
46218,38484
46220,38513
46232,38551
46250,38585
46275,38615
46283,38622
46712,39051
46718,39058
46749,39083
46783,39102
46807,39109
46807,39109
46807,39311
46810,39340
46819,39368
46833,39394
46852,39417
46874,39436
46900,39450
46929,39458
46958,39461
47942,39461
47972,39458
48000,39450
48026,39436
48049,39417
48068,39394
48082,39368
48090,39340
48093,39311
48093,38523
48090,38494
48082,38465
48068,38439
48049,38417
48026,38398
48000,38384
47972,38375
47942,38372
46958,38372
46929,38375
46900,38384
46874,38398
46852,38417
46833,38439
46819,38465
46810,38494
46807,38523
46807,38583
46616,38391
46616,37581
47760,37581
47769,37613
47808,37699
47864,37776
47933,37841
48014,37891
48103,37924
48178,37901
48178,37506
48278,37506
48278,37901
48353,37924
48442,37891
48522,37841
48592,37776
48647,37699
48687,37613
48696,37581
48672,37506
48278,37506
48178,37506
47784,37506
47760,37581
46616,37581
46616,37473
46732,37473
46761,37470
46789,37462
46816,37448
46838,37429
46857,37406
46871,37380
46880,37352
46882,37331
47760,37331
47784,37406
48178,37406
48178,37012
48278,37012
48278,37406
48672,37406
48696,37331
48687,37300
48647,37213
48592,37136
48522,37071
48442,37021
48353,36988
48278,37012
48178,37012
48103,36988
48014,37021
47933,37071
47864,37136
47808,37213
47769,37300
47760,37331
46882,37331
46883,37322
46883,36692
46880,36663
46877,36655
47742,36655
47742,36791
47745,36820
47754,36849
47768,36875
47787,36897
47809,36916
47836,36930
47864,36939
47893,36942
48562,36942
48592,36939
48620,36930
48646,36916
48669,36897
48688,36875
48702,36849
48710,36820
48713,36791
48713,36122
48710,36092
48702,36064
48688,36038
48669,36015
48646,35996
48620,35982
48592,35974
48562,35971
47893,35971
47864,35974
47836,35982
47809,35996
47787,36015
47768,36038
47754,36064
47745,36092
47742,36122
47742,36257
44552,36257
44535,36224
44505,36188
44469,36158
44428,36136
44384,36123
44338,36118
44165,36118
44119,36123
44075,36136
44034,36158
43998,36188
43968,36224
43947,36265
43941,36281
43936,36265
43914,36224
43885,36188
43849,36158
43808,36136
43764,36123
43718,36118
43545,36118
43499,36123
43455,36136
43414,36158
43378,36188
43348,36224
43331,36257
42923,36257
42913,36256
42903,36257
42874,36260
42836,36271
42802,36290
42771,36315
42765,36322
42378,36710
42352,36710
42342,36709
42332,36710
42155,36710
42145,36709
42135,36710
42037,36710
42027,36709
42017,36710
41319,36710
41301,36676
41272,36641
41236,36611
41195,36589
41151,36576
41104,36571
40932,36571
40886,36576
40841,36589
40800,36611
40765,36641
40735,36676
40713,36717
40708,36734
40703,36717
40681,36676
40652,36641
40616,36611
40575,36589
40530,36576
40484,36571
40312,36571
40266,36576
40221,36589
40180,36611
40145,36641
40115,36676
40093,36717
40080,36762
40075,36808
40075,37010
40080,37056
40093,37100
40115,37141
40145,37177
40169,37198
40169,37230
40145,37251
40115,37287
40109,37298
39639,37298
39617,37257
39556,37183
39483,37122
39398,37077
39307,37049
39236,37042
39188,37042
39117,37049
39026,37077
38942,37122
38868,37183
38807,37257
38762,37341
38734,37432
38725,37527
38348,37527
38348,35592
49052,35592
49052,41178
Z" /> 
</g>
</g>
<g style="fill:#FFFFFF; fill-opacity:1.0; 
stroke:#FFFFFF; stroke-width:100; stroke-opacity:1; 
stroke-linecap:round; stroke-linejoin:round;">
</g>
<g style="fill:#FFFFFF; fill-opacity:1.0; 
stroke:#FFFFFF; stroke-width:0; stroke-opacity:1; 
stroke-linecap:round; stroke-linejoin:round;">
<circle cx="46417.3" cy="37007.9" r="157.48" /> 
</g>
<g style="fill:#FFFFFF; fill-opacity:1.0; 
stroke:#FFFFFF; stroke-width:39.3701; stroke-opacity:1; 
stroke-linecap:round; stroke-linejoin:round;">
</g>
<g style="fill:#FFFFFF; fill-opacity:1.0; 
stroke:#FFFFFF; stroke-width:0; stroke-opacity:1; 
stroke-linecap:round; stroke-linejoin:round;">
<circle cx="45433.1" cy="37007.9" r="157.48" /> 
</g>
<g style="fill:#FFFFFF; fill-opacity:1.0; 
stroke:#FFFFFF; stroke-width:39.3701; stroke-opacity:1; 
stroke-linecap:round; stroke-linejoin:round;">
</g>
<g style="fill:#FFFFFF; fill-opacity:1.0; 
stroke:#FFFFFF; stroke-width:0; stroke-opacity:1; 
stroke-linecap:round; stroke-linejoin:round;">
<circle cx="39212.6" cy="39527.6" r="196.85" /> 
</g>
<g style="fill:#FFFFFF; fill-opacity:1.0; 
stroke:#FFFFFF; stroke-width:39.3701; stroke-opacity:1; 
stroke-linecap:round; stroke-linejoin:round;">
</g>
<g style="fill:#FFFFFF; fill-opacity:1.0; 
stroke:#FFFFFF; stroke-width:0; stroke-opacity:1; 
stroke-linecap:round; stroke-linejoin:round;">
<circle cx="39212.6" cy="38527.6" r="196.85" /> 
</g>
<g style="fill:#FFFFFF; fill-opacity:1.0; 
stroke:#FFFFFF; stroke-width:39.3701; stroke-opacity:1; 
stroke-linecap:round; stroke-linejoin:round;">
</g>
<g style="fill:#FFFFFF; fill-opacity:1.0; 
stroke:#FFFFFF; stroke-width:0; stroke-opacity:1; 
stroke-linecap:round; stroke-linejoin:round;">
<circle cx="39212.6" cy="37527.6" r="196.85" /> 
</g>
<g style="fill:#FFFFFF; fill-opacity:1.0; 
stroke:#FFFFFF; stroke-width:39.3701; stroke-opacity:1; 
stroke-linecap:round; stroke-linejoin:round;">
</g>
<g style="fill:#FFFFFF; fill-opacity:1.0; 
stroke:#FFFFFF; stroke-width:0; stroke-opacity:1; 
stroke-linecap:round; stroke-linejoin:round;">
<circle cx="48228.3" cy="36456.7" r="196.85" /> 
</g>
<g style="fill:#FFFFFF; fill-opacity:1.0; 
stroke:#FFFFFF; stroke-width:39.3701; stroke-opacity:1; 
stroke-linecap:round; stroke-linejoin:round;">
</g>
<g style="fill:#FFFFFF; fill-opacity:1.0; 
stroke:#FFFFFF; stroke-width:0; stroke-opacity:1; 
stroke-linecap:round; stroke-linejoin:round;">
<circle cx="48228.3" cy="37456.7" r="196.85" /> 
</g>
<g style="fill:#FFFFFF; fill-opacity:1.0; 
stroke:#FFFFFF; stroke-width:39.3701; stroke-opacity:1; 
stroke-linecap:round; stroke-linejoin:round;">
</g>
<g style="fill:#FFFFFF; fill-opacity:1.0; 
stroke:#FFFFFF; stroke-width:0; stroke-opacity:1; 
stroke-linecap:round; stroke-linejoin:round;">
<circle cx="42744.1" cy="37980.3" r="147.638" /> 
</g>
<g style="fill:#FFFFFF; fill-opacity:1.0; 
stroke:#FFFFFF; stroke-width:39.3701; stroke-opacity:1; 
stroke-linecap:round; stroke-linejoin:round;">
</g>
<g style="fill:#FFFFFF; fill-opacity:1.0; 
stroke:#FFFFFF; stroke-width:0; stroke-opacity:1; 
stroke-linecap:round; stroke-linejoin:round;">
<circle cx="42244.1" cy="38480.3" r="147.638" /> 
</g>
<g style="fill:#FFFFFF; fill-opacity:1.0; 
stroke:#FFFFFF; stroke-width:39.3701; stroke-opacity:1; 
stroke-linecap:round; stroke-linejoin:round;">
</g>
<g style="fill:#FFFFFF; fill-opacity:1.0; 
stroke:#FFFFFF; stroke-width:0; stroke-opacity:1; 
stroke-linecap:round; stroke-linejoin:round;">
<circle cx="42244.1" cy="37480.3" r="147.638" /> 
</g>
<g style="fill:#FFFFFF; fill-opacity:1.0; 
stroke:#FFFFFF; stroke-width:39.3701; stroke-opacity:1; 
stroke-linecap:round; stroke-linejoin:round;">
</g>
<g style="fill:#000000; fill-opacity:1.0; 
stroke:#000000; stroke-width:39.3701; stroke-opacity:1; 
stroke-linecap:round; stroke-linejoin:round;">
</g>
<g style="fill:#C2C200; fill-opacity:1.0; 
stroke:#C2C200; stroke-width:39.3701; stroke-opacity:1; 
stroke-linecap:round; stroke-linejoin:round;">
</g>
<g style="fill:#C2C200; fill-opacity:1.0; 
stroke:#C2C200; stroke-width:19.685; stroke-opacity:1; 
stroke-linecap:round; stroke-linejoin:round;">
</g>
<g style="fill:#C2C200; fill-opacity:0.0; 
stroke:#C2C200; stroke-width:19.685; stroke-opacity:1; 
stroke-linecap:round; stroke-linejoin:round;">
<path d="M49212 41338
L49212 35433
" />
<path d="M38188 41338
L49212 41338
" />
<path d="M38188 35433
L38188 41338
" />
<path d="M49212 35433
L38188 35433
" />
<g >
</g>
<g >
</g>
<g >
</g>
<g >
</g>
<g >
</g>
<g >
</g>
<g >
</g>
<g >
</g>
<g >
</g>
<g >
</g>
<g >
</g>
<g >
</g>
</g> 
</svg>
