G04 #@! TF.GenerationSoftware,KiCad,Pcbnew,(5.1.4)-1*
G04 #@! TF.CreationDate,2020-05-05T22:30:09+03:00*
G04 #@! TF.ProjectId,Singe_transistor_AMP,53696e67-655f-4747-9261-6e736973746f,V1*
G04 #@! TF.SameCoordinates,Original*
G04 #@! TF.FileFunction,Copper,L2,Bot*
G04 #@! TF.FilePolarity,Positive*
%FSLAX46Y46*%
G04 Gerber Fmt 4.6, Leading zero omitted, Abs format (unit mm)*
G04 Created by KiCad (PCBNEW (5.1.4)-1) date 2020-05-05 22:30:09*
%MOMM*%
%LPD*%
G04 APERTURE LIST*
%ADD10R,1.600000X1.600000*%
%ADD11C,1.600000*%
%ADD12R,1.700000X1.700000*%
%ADD13O,1.700000X1.700000*%
%ADD14C,1.300000*%
%ADD15R,1.300000X1.300000*%
%ADD16C,0.254000*%
G04 APERTURE END LIST*
D10*
X117900000Y-94000000D03*
D11*
X115400000Y-94000000D03*
D12*
X99600000Y-100400000D03*
D13*
X99600000Y-97860000D03*
X99600000Y-95320000D03*
D12*
X122500000Y-92600000D03*
D13*
X122500000Y-95140000D03*
D14*
X108570000Y-96470000D03*
X107300000Y-97740000D03*
D15*
X107300000Y-95200000D03*
D16*
G36*
X124594000Y-104594000D02*
G01*
X97406000Y-104594000D01*
X97406000Y-101250000D01*
X98111928Y-101250000D01*
X98124188Y-101374482D01*
X98160498Y-101494180D01*
X98219463Y-101604494D01*
X98298815Y-101701185D01*
X98395506Y-101780537D01*
X98505820Y-101839502D01*
X98625518Y-101875812D01*
X98750000Y-101888072D01*
X99314250Y-101885000D01*
X99473000Y-101726250D01*
X99473000Y-100527000D01*
X99727000Y-100527000D01*
X99727000Y-101726250D01*
X99885750Y-101885000D01*
X100450000Y-101888072D01*
X100574482Y-101875812D01*
X100694180Y-101839502D01*
X100804494Y-101780537D01*
X100901185Y-101701185D01*
X100980537Y-101604494D01*
X101039502Y-101494180D01*
X101075812Y-101374482D01*
X101088072Y-101250000D01*
X101085000Y-100685750D01*
X100926250Y-100527000D01*
X99727000Y-100527000D01*
X99473000Y-100527000D01*
X98273750Y-100527000D01*
X98115000Y-100685750D01*
X98111928Y-101250000D01*
X97406000Y-101250000D01*
X97406000Y-99550000D01*
X98111928Y-99550000D01*
X98115000Y-100114250D01*
X98273750Y-100273000D01*
X99473000Y-100273000D01*
X99473000Y-100253000D01*
X99727000Y-100253000D01*
X99727000Y-100273000D01*
X100926250Y-100273000D01*
X101085000Y-100114250D01*
X101088072Y-99550000D01*
X101075812Y-99425518D01*
X101039502Y-99305820D01*
X100980537Y-99195506D01*
X100901185Y-99098815D01*
X100804494Y-99019463D01*
X100694180Y-98960498D01*
X100574482Y-98924188D01*
X100450000Y-98911928D01*
X100241242Y-98913065D01*
X100287216Y-98888491D01*
X100474660Y-98734660D01*
X100628491Y-98547216D01*
X100742798Y-98333363D01*
X100813188Y-98101318D01*
X100836956Y-97860000D01*
X100813188Y-97618682D01*
X100742798Y-97386637D01*
X100628491Y-97172784D01*
X100474660Y-96985340D01*
X100287216Y-96831509D01*
X100073363Y-96717202D01*
X99841318Y-96646812D01*
X99660472Y-96629000D01*
X99539528Y-96629000D01*
X99358682Y-96646812D01*
X99126637Y-96717202D01*
X98912784Y-96831509D01*
X98725340Y-96985340D01*
X98571509Y-97172784D01*
X98457202Y-97386637D01*
X98386812Y-97618682D01*
X98363044Y-97860000D01*
X98386812Y-98101318D01*
X98457202Y-98333363D01*
X98571509Y-98547216D01*
X98725340Y-98734660D01*
X98912784Y-98888491D01*
X98958758Y-98913065D01*
X98750000Y-98911928D01*
X98625518Y-98924188D01*
X98505820Y-98960498D01*
X98395506Y-99019463D01*
X98298815Y-99098815D01*
X98219463Y-99195506D01*
X98160498Y-99305820D01*
X98124188Y-99425518D01*
X98111928Y-99550000D01*
X97406000Y-99550000D01*
X97406000Y-95320000D01*
X98363044Y-95320000D01*
X98386812Y-95561318D01*
X98457202Y-95793363D01*
X98571509Y-96007216D01*
X98725340Y-96194660D01*
X98912784Y-96348491D01*
X99126637Y-96462798D01*
X99358682Y-96533188D01*
X99539528Y-96551000D01*
X99660472Y-96551000D01*
X99841318Y-96533188D01*
X100073363Y-96462798D01*
X100287216Y-96348491D01*
X100474660Y-96194660D01*
X100628491Y-96007216D01*
X100742798Y-95793363D01*
X100813188Y-95561318D01*
X100836956Y-95320000D01*
X100813188Y-95078682D01*
X100742798Y-94846637D01*
X100628491Y-94632784D01*
X100560553Y-94550000D01*
X106267157Y-94550000D01*
X106267157Y-95850000D01*
X106274513Y-95924689D01*
X106296299Y-95996508D01*
X106331678Y-96062696D01*
X106379289Y-96120711D01*
X106437304Y-96168322D01*
X106503492Y-96203701D01*
X106575311Y-96225487D01*
X106650000Y-96232843D01*
X107565974Y-96232843D01*
X107539000Y-96368455D01*
X107539000Y-96571545D01*
X107573130Y-96743130D01*
X107401545Y-96709000D01*
X107198455Y-96709000D01*
X106999268Y-96748620D01*
X106811638Y-96826339D01*
X106642776Y-96939170D01*
X106499170Y-97082776D01*
X106386339Y-97251638D01*
X106308620Y-97439268D01*
X106269000Y-97638455D01*
X106269000Y-97841545D01*
X106308620Y-98040732D01*
X106386339Y-98228362D01*
X106499170Y-98397224D01*
X106642776Y-98540830D01*
X106811638Y-98653661D01*
X106999268Y-98731380D01*
X107198455Y-98771000D01*
X107401545Y-98771000D01*
X107600732Y-98731380D01*
X107788362Y-98653661D01*
X107957224Y-98540830D01*
X108100830Y-98397224D01*
X108213661Y-98228362D01*
X108291380Y-98040732D01*
X108331000Y-97841545D01*
X108331000Y-97638455D01*
X108296870Y-97466870D01*
X108468455Y-97501000D01*
X108671545Y-97501000D01*
X108870732Y-97461380D01*
X109058362Y-97383661D01*
X109227224Y-97270830D01*
X109370830Y-97127224D01*
X109483661Y-96958362D01*
X109561380Y-96770732D01*
X109601000Y-96571545D01*
X109601000Y-96368455D01*
X109561380Y-96169268D01*
X109483661Y-95981638D01*
X109370830Y-95812776D01*
X109227224Y-95669170D01*
X109058362Y-95556339D01*
X108914840Y-95496890D01*
X121058524Y-95496890D01*
X121103175Y-95644099D01*
X121228359Y-95906920D01*
X121402412Y-96140269D01*
X121618645Y-96335178D01*
X121868748Y-96484157D01*
X122143109Y-96581481D01*
X122373000Y-96460814D01*
X122373000Y-95267000D01*
X122627000Y-95267000D01*
X122627000Y-96460814D01*
X122856891Y-96581481D01*
X123131252Y-96484157D01*
X123381355Y-96335178D01*
X123597588Y-96140269D01*
X123771641Y-95906920D01*
X123896825Y-95644099D01*
X123941476Y-95496890D01*
X123820155Y-95267000D01*
X122627000Y-95267000D01*
X122373000Y-95267000D01*
X121179845Y-95267000D01*
X121058524Y-95496890D01*
X108914840Y-95496890D01*
X108870732Y-95478620D01*
X108671545Y-95439000D01*
X108468455Y-95439000D01*
X108332843Y-95465974D01*
X108332843Y-94992702D01*
X114586903Y-94992702D01*
X114658486Y-95236671D01*
X114913996Y-95357571D01*
X115188184Y-95426300D01*
X115470512Y-95440217D01*
X115750130Y-95398787D01*
X116016292Y-95303603D01*
X116141514Y-95236671D01*
X116213097Y-94992702D01*
X115400000Y-94179605D01*
X114586903Y-94992702D01*
X108332843Y-94992702D01*
X108332843Y-94550000D01*
X108325487Y-94475311D01*
X108303701Y-94403492D01*
X108268322Y-94337304D01*
X108220711Y-94279289D01*
X108162696Y-94231678D01*
X108096508Y-94196299D01*
X108024689Y-94174513D01*
X107950000Y-94167157D01*
X106650000Y-94167157D01*
X106575311Y-94174513D01*
X106503492Y-94196299D01*
X106437304Y-94231678D01*
X106379289Y-94279289D01*
X106331678Y-94337304D01*
X106296299Y-94403492D01*
X106274513Y-94475311D01*
X106267157Y-94550000D01*
X100560553Y-94550000D01*
X100474660Y-94445340D01*
X100287216Y-94291509D01*
X100073363Y-94177202D01*
X99841318Y-94106812D01*
X99660472Y-94089000D01*
X99539528Y-94089000D01*
X99358682Y-94106812D01*
X99126637Y-94177202D01*
X98912784Y-94291509D01*
X98725340Y-94445340D01*
X98571509Y-94632784D01*
X98457202Y-94846637D01*
X98386812Y-95078682D01*
X98363044Y-95320000D01*
X97406000Y-95320000D01*
X97406000Y-94070512D01*
X113959783Y-94070512D01*
X114001213Y-94350130D01*
X114096397Y-94616292D01*
X114163329Y-94741514D01*
X114407298Y-94813097D01*
X115220395Y-94000000D01*
X115579605Y-94000000D01*
X116392702Y-94813097D01*
X116636671Y-94741514D01*
X116717157Y-94571415D01*
X116717157Y-94800000D01*
X116724513Y-94874689D01*
X116746299Y-94946508D01*
X116781678Y-95012696D01*
X116829289Y-95070711D01*
X116887304Y-95118322D01*
X116953492Y-95153701D01*
X117025311Y-95175487D01*
X117100000Y-95182843D01*
X118700000Y-95182843D01*
X118774689Y-95175487D01*
X118846508Y-95153701D01*
X118912696Y-95118322D01*
X118970711Y-95070711D01*
X119018322Y-95012696D01*
X119053701Y-94946508D01*
X119075487Y-94874689D01*
X119082843Y-94800000D01*
X119082843Y-94783110D01*
X121058524Y-94783110D01*
X121179845Y-95013000D01*
X122373000Y-95013000D01*
X122373000Y-94993000D01*
X122627000Y-94993000D01*
X122627000Y-95013000D01*
X123820155Y-95013000D01*
X123941476Y-94783110D01*
X123896825Y-94635901D01*
X123771641Y-94373080D01*
X123597588Y-94139731D01*
X123381355Y-93944822D01*
X123193367Y-93832843D01*
X123350000Y-93832843D01*
X123424689Y-93825487D01*
X123496508Y-93803701D01*
X123562696Y-93768322D01*
X123620711Y-93720711D01*
X123668322Y-93662696D01*
X123703701Y-93596508D01*
X123725487Y-93524689D01*
X123732843Y-93450000D01*
X123732843Y-91750000D01*
X123725487Y-91675311D01*
X123703701Y-91603492D01*
X123668322Y-91537304D01*
X123620711Y-91479289D01*
X123562696Y-91431678D01*
X123496508Y-91396299D01*
X123424689Y-91374513D01*
X123350000Y-91367157D01*
X121650000Y-91367157D01*
X121575311Y-91374513D01*
X121503492Y-91396299D01*
X121437304Y-91431678D01*
X121379289Y-91479289D01*
X121331678Y-91537304D01*
X121296299Y-91603492D01*
X121274513Y-91675311D01*
X121267157Y-91750000D01*
X121267157Y-93450000D01*
X121274513Y-93524689D01*
X121296299Y-93596508D01*
X121331678Y-93662696D01*
X121379289Y-93720711D01*
X121437304Y-93768322D01*
X121503492Y-93803701D01*
X121575311Y-93825487D01*
X121650000Y-93832843D01*
X121806633Y-93832843D01*
X121618645Y-93944822D01*
X121402412Y-94139731D01*
X121228359Y-94373080D01*
X121103175Y-94635901D01*
X121058524Y-94783110D01*
X119082843Y-94783110D01*
X119082843Y-93200000D01*
X119075487Y-93125311D01*
X119053701Y-93053492D01*
X119018322Y-92987304D01*
X118970711Y-92929289D01*
X118912696Y-92881678D01*
X118846508Y-92846299D01*
X118774689Y-92824513D01*
X118700000Y-92817157D01*
X117100000Y-92817157D01*
X117025311Y-92824513D01*
X116953492Y-92846299D01*
X116887304Y-92881678D01*
X116829289Y-92929289D01*
X116781678Y-92987304D01*
X116746299Y-93053492D01*
X116724513Y-93125311D01*
X116717157Y-93200000D01*
X116717157Y-93421609D01*
X116703603Y-93383708D01*
X116636671Y-93258486D01*
X116392702Y-93186903D01*
X115579605Y-94000000D01*
X115220395Y-94000000D01*
X114407298Y-93186903D01*
X114163329Y-93258486D01*
X114042429Y-93513996D01*
X113973700Y-93788184D01*
X113959783Y-94070512D01*
X97406000Y-94070512D01*
X97406000Y-93007298D01*
X114586903Y-93007298D01*
X115400000Y-93820395D01*
X116213097Y-93007298D01*
X116141514Y-92763329D01*
X115886004Y-92642429D01*
X115611816Y-92573700D01*
X115329488Y-92559783D01*
X115049870Y-92601213D01*
X114783708Y-92696397D01*
X114658486Y-92763329D01*
X114586903Y-93007298D01*
X97406000Y-93007298D01*
X97406000Y-90406000D01*
X124594001Y-90406000D01*
X124594000Y-104594000D01*
X124594000Y-104594000D01*
G37*
X124594000Y-104594000D02*
X97406000Y-104594000D01*
X97406000Y-101250000D01*
X98111928Y-101250000D01*
X98124188Y-101374482D01*
X98160498Y-101494180D01*
X98219463Y-101604494D01*
X98298815Y-101701185D01*
X98395506Y-101780537D01*
X98505820Y-101839502D01*
X98625518Y-101875812D01*
X98750000Y-101888072D01*
X99314250Y-101885000D01*
X99473000Y-101726250D01*
X99473000Y-100527000D01*
X99727000Y-100527000D01*
X99727000Y-101726250D01*
X99885750Y-101885000D01*
X100450000Y-101888072D01*
X100574482Y-101875812D01*
X100694180Y-101839502D01*
X100804494Y-101780537D01*
X100901185Y-101701185D01*
X100980537Y-101604494D01*
X101039502Y-101494180D01*
X101075812Y-101374482D01*
X101088072Y-101250000D01*
X101085000Y-100685750D01*
X100926250Y-100527000D01*
X99727000Y-100527000D01*
X99473000Y-100527000D01*
X98273750Y-100527000D01*
X98115000Y-100685750D01*
X98111928Y-101250000D01*
X97406000Y-101250000D01*
X97406000Y-99550000D01*
X98111928Y-99550000D01*
X98115000Y-100114250D01*
X98273750Y-100273000D01*
X99473000Y-100273000D01*
X99473000Y-100253000D01*
X99727000Y-100253000D01*
X99727000Y-100273000D01*
X100926250Y-100273000D01*
X101085000Y-100114250D01*
X101088072Y-99550000D01*
X101075812Y-99425518D01*
X101039502Y-99305820D01*
X100980537Y-99195506D01*
X100901185Y-99098815D01*
X100804494Y-99019463D01*
X100694180Y-98960498D01*
X100574482Y-98924188D01*
X100450000Y-98911928D01*
X100241242Y-98913065D01*
X100287216Y-98888491D01*
X100474660Y-98734660D01*
X100628491Y-98547216D01*
X100742798Y-98333363D01*
X100813188Y-98101318D01*
X100836956Y-97860000D01*
X100813188Y-97618682D01*
X100742798Y-97386637D01*
X100628491Y-97172784D01*
X100474660Y-96985340D01*
X100287216Y-96831509D01*
X100073363Y-96717202D01*
X99841318Y-96646812D01*
X99660472Y-96629000D01*
X99539528Y-96629000D01*
X99358682Y-96646812D01*
X99126637Y-96717202D01*
X98912784Y-96831509D01*
X98725340Y-96985340D01*
X98571509Y-97172784D01*
X98457202Y-97386637D01*
X98386812Y-97618682D01*
X98363044Y-97860000D01*
X98386812Y-98101318D01*
X98457202Y-98333363D01*
X98571509Y-98547216D01*
X98725340Y-98734660D01*
X98912784Y-98888491D01*
X98958758Y-98913065D01*
X98750000Y-98911928D01*
X98625518Y-98924188D01*
X98505820Y-98960498D01*
X98395506Y-99019463D01*
X98298815Y-99098815D01*
X98219463Y-99195506D01*
X98160498Y-99305820D01*
X98124188Y-99425518D01*
X98111928Y-99550000D01*
X97406000Y-99550000D01*
X97406000Y-95320000D01*
X98363044Y-95320000D01*
X98386812Y-95561318D01*
X98457202Y-95793363D01*
X98571509Y-96007216D01*
X98725340Y-96194660D01*
X98912784Y-96348491D01*
X99126637Y-96462798D01*
X99358682Y-96533188D01*
X99539528Y-96551000D01*
X99660472Y-96551000D01*
X99841318Y-96533188D01*
X100073363Y-96462798D01*
X100287216Y-96348491D01*
X100474660Y-96194660D01*
X100628491Y-96007216D01*
X100742798Y-95793363D01*
X100813188Y-95561318D01*
X100836956Y-95320000D01*
X100813188Y-95078682D01*
X100742798Y-94846637D01*
X100628491Y-94632784D01*
X100560553Y-94550000D01*
X106267157Y-94550000D01*
X106267157Y-95850000D01*
X106274513Y-95924689D01*
X106296299Y-95996508D01*
X106331678Y-96062696D01*
X106379289Y-96120711D01*
X106437304Y-96168322D01*
X106503492Y-96203701D01*
X106575311Y-96225487D01*
X106650000Y-96232843D01*
X107565974Y-96232843D01*
X107539000Y-96368455D01*
X107539000Y-96571545D01*
X107573130Y-96743130D01*
X107401545Y-96709000D01*
X107198455Y-96709000D01*
X106999268Y-96748620D01*
X106811638Y-96826339D01*
X106642776Y-96939170D01*
X106499170Y-97082776D01*
X106386339Y-97251638D01*
X106308620Y-97439268D01*
X106269000Y-97638455D01*
X106269000Y-97841545D01*
X106308620Y-98040732D01*
X106386339Y-98228362D01*
X106499170Y-98397224D01*
X106642776Y-98540830D01*
X106811638Y-98653661D01*
X106999268Y-98731380D01*
X107198455Y-98771000D01*
X107401545Y-98771000D01*
X107600732Y-98731380D01*
X107788362Y-98653661D01*
X107957224Y-98540830D01*
X108100830Y-98397224D01*
X108213661Y-98228362D01*
X108291380Y-98040732D01*
X108331000Y-97841545D01*
X108331000Y-97638455D01*
X108296870Y-97466870D01*
X108468455Y-97501000D01*
X108671545Y-97501000D01*
X108870732Y-97461380D01*
X109058362Y-97383661D01*
X109227224Y-97270830D01*
X109370830Y-97127224D01*
X109483661Y-96958362D01*
X109561380Y-96770732D01*
X109601000Y-96571545D01*
X109601000Y-96368455D01*
X109561380Y-96169268D01*
X109483661Y-95981638D01*
X109370830Y-95812776D01*
X109227224Y-95669170D01*
X109058362Y-95556339D01*
X108914840Y-95496890D01*
X121058524Y-95496890D01*
X121103175Y-95644099D01*
X121228359Y-95906920D01*
X121402412Y-96140269D01*
X121618645Y-96335178D01*
X121868748Y-96484157D01*
X122143109Y-96581481D01*
X122373000Y-96460814D01*
X122373000Y-95267000D01*
X122627000Y-95267000D01*
X122627000Y-96460814D01*
X122856891Y-96581481D01*
X123131252Y-96484157D01*
X123381355Y-96335178D01*
X123597588Y-96140269D01*
X123771641Y-95906920D01*
X123896825Y-95644099D01*
X123941476Y-95496890D01*
X123820155Y-95267000D01*
X122627000Y-95267000D01*
X122373000Y-95267000D01*
X121179845Y-95267000D01*
X121058524Y-95496890D01*
X108914840Y-95496890D01*
X108870732Y-95478620D01*
X108671545Y-95439000D01*
X108468455Y-95439000D01*
X108332843Y-95465974D01*
X108332843Y-94992702D01*
X114586903Y-94992702D01*
X114658486Y-95236671D01*
X114913996Y-95357571D01*
X115188184Y-95426300D01*
X115470512Y-95440217D01*
X115750130Y-95398787D01*
X116016292Y-95303603D01*
X116141514Y-95236671D01*
X116213097Y-94992702D01*
X115400000Y-94179605D01*
X114586903Y-94992702D01*
X108332843Y-94992702D01*
X108332843Y-94550000D01*
X108325487Y-94475311D01*
X108303701Y-94403492D01*
X108268322Y-94337304D01*
X108220711Y-94279289D01*
X108162696Y-94231678D01*
X108096508Y-94196299D01*
X108024689Y-94174513D01*
X107950000Y-94167157D01*
X106650000Y-94167157D01*
X106575311Y-94174513D01*
X106503492Y-94196299D01*
X106437304Y-94231678D01*
X106379289Y-94279289D01*
X106331678Y-94337304D01*
X106296299Y-94403492D01*
X106274513Y-94475311D01*
X106267157Y-94550000D01*
X100560553Y-94550000D01*
X100474660Y-94445340D01*
X100287216Y-94291509D01*
X100073363Y-94177202D01*
X99841318Y-94106812D01*
X99660472Y-94089000D01*
X99539528Y-94089000D01*
X99358682Y-94106812D01*
X99126637Y-94177202D01*
X98912784Y-94291509D01*
X98725340Y-94445340D01*
X98571509Y-94632784D01*
X98457202Y-94846637D01*
X98386812Y-95078682D01*
X98363044Y-95320000D01*
X97406000Y-95320000D01*
X97406000Y-94070512D01*
X113959783Y-94070512D01*
X114001213Y-94350130D01*
X114096397Y-94616292D01*
X114163329Y-94741514D01*
X114407298Y-94813097D01*
X115220395Y-94000000D01*
X115579605Y-94000000D01*
X116392702Y-94813097D01*
X116636671Y-94741514D01*
X116717157Y-94571415D01*
X116717157Y-94800000D01*
X116724513Y-94874689D01*
X116746299Y-94946508D01*
X116781678Y-95012696D01*
X116829289Y-95070711D01*
X116887304Y-95118322D01*
X116953492Y-95153701D01*
X117025311Y-95175487D01*
X117100000Y-95182843D01*
X118700000Y-95182843D01*
X118774689Y-95175487D01*
X118846508Y-95153701D01*
X118912696Y-95118322D01*
X118970711Y-95070711D01*
X119018322Y-95012696D01*
X119053701Y-94946508D01*
X119075487Y-94874689D01*
X119082843Y-94800000D01*
X119082843Y-94783110D01*
X121058524Y-94783110D01*
X121179845Y-95013000D01*
X122373000Y-95013000D01*
X122373000Y-94993000D01*
X122627000Y-94993000D01*
X122627000Y-95013000D01*
X123820155Y-95013000D01*
X123941476Y-94783110D01*
X123896825Y-94635901D01*
X123771641Y-94373080D01*
X123597588Y-94139731D01*
X123381355Y-93944822D01*
X123193367Y-93832843D01*
X123350000Y-93832843D01*
X123424689Y-93825487D01*
X123496508Y-93803701D01*
X123562696Y-93768322D01*
X123620711Y-93720711D01*
X123668322Y-93662696D01*
X123703701Y-93596508D01*
X123725487Y-93524689D01*
X123732843Y-93450000D01*
X123732843Y-91750000D01*
X123725487Y-91675311D01*
X123703701Y-91603492D01*
X123668322Y-91537304D01*
X123620711Y-91479289D01*
X123562696Y-91431678D01*
X123496508Y-91396299D01*
X123424689Y-91374513D01*
X123350000Y-91367157D01*
X121650000Y-91367157D01*
X121575311Y-91374513D01*
X121503492Y-91396299D01*
X121437304Y-91431678D01*
X121379289Y-91479289D01*
X121331678Y-91537304D01*
X121296299Y-91603492D01*
X121274513Y-91675311D01*
X121267157Y-91750000D01*
X121267157Y-93450000D01*
X121274513Y-93524689D01*
X121296299Y-93596508D01*
X121331678Y-93662696D01*
X121379289Y-93720711D01*
X121437304Y-93768322D01*
X121503492Y-93803701D01*
X121575311Y-93825487D01*
X121650000Y-93832843D01*
X121806633Y-93832843D01*
X121618645Y-93944822D01*
X121402412Y-94139731D01*
X121228359Y-94373080D01*
X121103175Y-94635901D01*
X121058524Y-94783110D01*
X119082843Y-94783110D01*
X119082843Y-93200000D01*
X119075487Y-93125311D01*
X119053701Y-93053492D01*
X119018322Y-92987304D01*
X118970711Y-92929289D01*
X118912696Y-92881678D01*
X118846508Y-92846299D01*
X118774689Y-92824513D01*
X118700000Y-92817157D01*
X117100000Y-92817157D01*
X117025311Y-92824513D01*
X116953492Y-92846299D01*
X116887304Y-92881678D01*
X116829289Y-92929289D01*
X116781678Y-92987304D01*
X116746299Y-93053492D01*
X116724513Y-93125311D01*
X116717157Y-93200000D01*
X116717157Y-93421609D01*
X116703603Y-93383708D01*
X116636671Y-93258486D01*
X116392702Y-93186903D01*
X115579605Y-94000000D01*
X115220395Y-94000000D01*
X114407298Y-93186903D01*
X114163329Y-93258486D01*
X114042429Y-93513996D01*
X113973700Y-93788184D01*
X113959783Y-94070512D01*
X97406000Y-94070512D01*
X97406000Y-93007298D01*
X114586903Y-93007298D01*
X115400000Y-93820395D01*
X116213097Y-93007298D01*
X116141514Y-92763329D01*
X115886004Y-92642429D01*
X115611816Y-92573700D01*
X115329488Y-92559783D01*
X115049870Y-92601213D01*
X114783708Y-92696397D01*
X114658486Y-92763329D01*
X114586903Y-93007298D01*
X97406000Y-93007298D01*
X97406000Y-90406000D01*
X124594001Y-90406000D01*
X124594000Y-104594000D01*
M02*
