G04 #@! TF.GenerationSoftware,KiCad,Pcbnew,(5.1.4)-1*
G04 #@! TF.CreationDate,2020-05-05T22:30:09+03:00*
G04 #@! TF.ProjectId,Singe_transistor_AMP,53696e67-655f-4747-9261-6e736973746f,V1*
G04 #@! TF.SameCoordinates,Original*
G04 #@! TF.FileFunction,Soldermask,Bot*
G04 #@! TF.FilePolarity,Negative*
%FSLAX46Y46*%
G04 Gerber Fmt 4.6, Leading zero omitted, Abs format (unit mm)*
G04 Created by KiCad (PCBNEW (5.1.4)-1) date 2020-05-05 22:30:09*
%MOMM*%
%LPD*%
G04 APERTURE LIST*
%ADD10C,0.100000*%
G04 APERTURE END LIST*
D10*
G36*
X100501000Y-101301000D02*
G01*
X98699000Y-101301000D01*
X98699000Y-99499000D01*
X100501000Y-99499000D01*
X100501000Y-101301000D01*
X100501000Y-101301000D01*
G37*
G36*
X99710442Y-96965518D02*
G01*
X99776627Y-96972037D01*
X99946466Y-97023557D01*
X100102991Y-97107222D01*
X100138729Y-97136552D01*
X100240186Y-97219814D01*
X100300363Y-97293141D01*
X100352778Y-97357009D01*
X100436443Y-97513534D01*
X100487963Y-97683373D01*
X100505359Y-97860000D01*
X100487963Y-98036627D01*
X100436443Y-98206466D01*
X100352778Y-98362991D01*
X100323448Y-98398729D01*
X100240186Y-98500186D01*
X100138729Y-98583448D01*
X100102991Y-98612778D01*
X99946466Y-98696443D01*
X99776627Y-98747963D01*
X99710443Y-98754481D01*
X99644260Y-98761000D01*
X99555740Y-98761000D01*
X99489558Y-98754482D01*
X99423373Y-98747963D01*
X99253534Y-98696443D01*
X99097009Y-98612778D01*
X99061271Y-98583448D01*
X98959814Y-98500186D01*
X98876552Y-98398729D01*
X98847222Y-98362991D01*
X98763557Y-98206466D01*
X98712037Y-98036627D01*
X98694641Y-97860000D01*
X98712037Y-97683373D01*
X98763557Y-97513534D01*
X98847222Y-97357009D01*
X98899637Y-97293141D01*
X98959814Y-97219814D01*
X99061271Y-97136552D01*
X99097009Y-97107222D01*
X99253534Y-97023557D01*
X99423373Y-96972037D01*
X99489557Y-96965519D01*
X99555740Y-96959000D01*
X99644260Y-96959000D01*
X99710442Y-96965518D01*
X99710442Y-96965518D01*
G37*
G36*
X107504473Y-97065938D02*
G01*
X107632049Y-97118782D01*
X107746859Y-97195495D01*
X107844505Y-97293141D01*
X107921218Y-97407951D01*
X107974062Y-97535527D01*
X108001000Y-97670956D01*
X108001000Y-97809044D01*
X107974062Y-97944473D01*
X107921218Y-98072049D01*
X107844505Y-98186859D01*
X107746859Y-98284505D01*
X107632049Y-98361218D01*
X107504473Y-98414062D01*
X107369044Y-98441000D01*
X107230956Y-98441000D01*
X107095527Y-98414062D01*
X106967951Y-98361218D01*
X106853141Y-98284505D01*
X106755495Y-98186859D01*
X106678782Y-98072049D01*
X106625938Y-97944473D01*
X106599000Y-97809044D01*
X106599000Y-97670956D01*
X106625938Y-97535527D01*
X106678782Y-97407951D01*
X106755495Y-97293141D01*
X106853141Y-97195495D01*
X106967951Y-97118782D01*
X107095527Y-97065938D01*
X107230956Y-97039000D01*
X107369044Y-97039000D01*
X107504473Y-97065938D01*
X107504473Y-97065938D01*
G37*
G36*
X108001000Y-95773251D02*
G01*
X108003402Y-95797637D01*
X108010515Y-95821086D01*
X108022066Y-95842697D01*
X108037611Y-95861639D01*
X108056553Y-95877184D01*
X108078164Y-95888735D01*
X108101613Y-95895848D01*
X108125999Y-95898250D01*
X108150385Y-95895848D01*
X108173834Y-95888735D01*
X108195444Y-95877184D01*
X108237951Y-95848782D01*
X108365527Y-95795938D01*
X108500956Y-95769000D01*
X108639044Y-95769000D01*
X108774473Y-95795938D01*
X108902049Y-95848782D01*
X109016859Y-95925495D01*
X109114505Y-96023141D01*
X109191218Y-96137951D01*
X109244062Y-96265527D01*
X109271000Y-96400956D01*
X109271000Y-96539044D01*
X109244062Y-96674473D01*
X109191218Y-96802049D01*
X109114505Y-96916859D01*
X109016859Y-97014505D01*
X108902049Y-97091218D01*
X108774473Y-97144062D01*
X108639044Y-97171000D01*
X108500956Y-97171000D01*
X108365527Y-97144062D01*
X108237951Y-97091218D01*
X108123141Y-97014505D01*
X108025495Y-96916859D01*
X107948782Y-96802049D01*
X107895938Y-96674473D01*
X107869000Y-96539044D01*
X107869000Y-96400956D01*
X107895938Y-96265527D01*
X107948782Y-96137951D01*
X107977184Y-96095444D01*
X107988735Y-96073833D01*
X107995848Y-96050384D01*
X107998250Y-96025998D01*
X107995848Y-96001612D01*
X107988735Y-95978163D01*
X107977183Y-95956553D01*
X107961638Y-95937611D01*
X107942696Y-95922066D01*
X107921085Y-95910515D01*
X107897636Y-95903402D01*
X107873251Y-95901000D01*
X106599000Y-95901000D01*
X106599000Y-94499000D01*
X108001000Y-94499000D01*
X108001000Y-95773251D01*
X108001000Y-95773251D01*
G37*
G36*
X99710443Y-94425519D02*
G01*
X99776627Y-94432037D01*
X99946466Y-94483557D01*
X99946468Y-94483558D01*
X99976882Y-94499815D01*
X100102991Y-94567222D01*
X100138729Y-94596552D01*
X100240186Y-94679814D01*
X100301189Y-94754148D01*
X100352778Y-94817009D01*
X100436443Y-94973534D01*
X100487963Y-95143373D01*
X100505359Y-95320000D01*
X100487963Y-95496627D01*
X100436443Y-95666466D01*
X100352778Y-95822991D01*
X100331612Y-95848782D01*
X100240186Y-95960186D01*
X100157598Y-96027963D01*
X100102991Y-96072778D01*
X99946466Y-96156443D01*
X99776627Y-96207963D01*
X99710442Y-96214482D01*
X99644260Y-96221000D01*
X99555740Y-96221000D01*
X99489557Y-96214481D01*
X99423373Y-96207963D01*
X99253534Y-96156443D01*
X99097009Y-96072778D01*
X99042402Y-96027963D01*
X98959814Y-95960186D01*
X98868388Y-95848782D01*
X98847222Y-95822991D01*
X98763557Y-95666466D01*
X98712037Y-95496627D01*
X98694641Y-95320000D01*
X98712037Y-95143373D01*
X98763557Y-94973534D01*
X98847222Y-94817009D01*
X98898811Y-94754148D01*
X98959814Y-94679814D01*
X99061271Y-94596552D01*
X99097009Y-94567222D01*
X99223118Y-94499815D01*
X99253532Y-94483558D01*
X99253534Y-94483557D01*
X99423373Y-94432037D01*
X99489557Y-94425519D01*
X99555740Y-94419000D01*
X99644260Y-94419000D01*
X99710443Y-94425519D01*
X99710443Y-94425519D01*
G37*
G36*
X122610443Y-94245519D02*
G01*
X122676627Y-94252037D01*
X122846466Y-94303557D01*
X123002991Y-94387222D01*
X123022338Y-94403100D01*
X123140186Y-94499814D01*
X123195505Y-94567222D01*
X123252778Y-94637009D01*
X123336443Y-94793534D01*
X123387963Y-94963373D01*
X123405359Y-95140000D01*
X123387963Y-95316627D01*
X123336443Y-95486466D01*
X123252778Y-95642991D01*
X123233512Y-95666466D01*
X123140186Y-95780186D01*
X123056600Y-95848782D01*
X123002991Y-95892778D01*
X123002989Y-95892779D01*
X122876881Y-95960186D01*
X122846466Y-95976443D01*
X122676627Y-96027963D01*
X122610442Y-96034482D01*
X122544260Y-96041000D01*
X122455740Y-96041000D01*
X122389558Y-96034482D01*
X122323373Y-96027963D01*
X122153534Y-95976443D01*
X122123120Y-95960186D01*
X121997011Y-95892779D01*
X121997009Y-95892778D01*
X121943400Y-95848782D01*
X121859814Y-95780186D01*
X121766488Y-95666466D01*
X121747222Y-95642991D01*
X121663557Y-95486466D01*
X121612037Y-95316627D01*
X121594641Y-95140000D01*
X121612037Y-94963373D01*
X121663557Y-94793534D01*
X121747222Y-94637009D01*
X121804495Y-94567222D01*
X121859814Y-94499814D01*
X121977662Y-94403100D01*
X121997009Y-94387222D01*
X122153534Y-94303557D01*
X122323373Y-94252037D01*
X122389557Y-94245519D01*
X122455740Y-94239000D01*
X122544260Y-94239000D01*
X122610443Y-94245519D01*
X122610443Y-94245519D01*
G37*
G36*
X115648228Y-93181703D02*
G01*
X115803100Y-93245853D01*
X115942481Y-93338985D01*
X116061015Y-93457519D01*
X116154147Y-93596900D01*
X116218297Y-93751772D01*
X116251000Y-93916184D01*
X116251000Y-94083816D01*
X116218297Y-94248228D01*
X116154147Y-94403100D01*
X116061015Y-94542481D01*
X115942481Y-94661015D01*
X115803100Y-94754147D01*
X115648228Y-94818297D01*
X115483816Y-94851000D01*
X115316184Y-94851000D01*
X115151772Y-94818297D01*
X114996900Y-94754147D01*
X114857519Y-94661015D01*
X114738985Y-94542481D01*
X114645853Y-94403100D01*
X114581703Y-94248228D01*
X114549000Y-94083816D01*
X114549000Y-93916184D01*
X114581703Y-93751772D01*
X114645853Y-93596900D01*
X114738985Y-93457519D01*
X114857519Y-93338985D01*
X114996900Y-93245853D01*
X115151772Y-93181703D01*
X115316184Y-93149000D01*
X115483816Y-93149000D01*
X115648228Y-93181703D01*
X115648228Y-93181703D01*
G37*
G36*
X118751000Y-94851000D02*
G01*
X117049000Y-94851000D01*
X117049000Y-93149000D01*
X118751000Y-93149000D01*
X118751000Y-94851000D01*
X118751000Y-94851000D01*
G37*
G36*
X123401000Y-93501000D02*
G01*
X121599000Y-93501000D01*
X121599000Y-91699000D01*
X123401000Y-91699000D01*
X123401000Y-93501000D01*
X123401000Y-93501000D01*
G37*
M02*
