G04 #@! TF.GenerationSoftware,KiCad,Pcbnew,(5.1.4)-1*
G04 #@! TF.CreationDate,2020-05-06T09:34:34+03:00*
G04 #@! TF.ProjectId,Singe_transistor_AMP,53696e67-655f-4747-9261-6e736973746f,V1*
G04 #@! TF.SameCoordinates,Original*
G04 #@! TF.FileFunction,Soldermask,Top*
G04 #@! TF.FilePolarity,Negative*
%FSLAX46Y46*%
G04 Gerber Fmt 4.6, Leading zero omitted, Abs format (unit mm)*
G04 Created by KiCad (PCBNEW (5.1.4)-1) date 2020-05-06 09:34:34*
%MOMM*%
%LPD*%
G04 APERTURE LIST*
%ADD10C,0.100000*%
G04 APERTURE END LIST*
D10*
G36*
X121826000Y-104201000D02*
G01*
X119224000Y-104201000D01*
X119224000Y-102099000D01*
X121826000Y-102099000D01*
X121826000Y-104201000D01*
X121826000Y-104201000D01*
G37*
G36*
X107679591Y-101203085D02*
G01*
X107713569Y-101213393D01*
X107744890Y-101230134D01*
X107772339Y-101252661D01*
X107794866Y-101280110D01*
X107811607Y-101311431D01*
X107821915Y-101345409D01*
X107826000Y-101386890D01*
X107826000Y-101988110D01*
X107821915Y-102029591D01*
X107811607Y-102063569D01*
X107794866Y-102094890D01*
X107772339Y-102122339D01*
X107744890Y-102144866D01*
X107713569Y-102161607D01*
X107679591Y-102171915D01*
X107638110Y-102176000D01*
X106961890Y-102176000D01*
X106920409Y-102171915D01*
X106886431Y-102161607D01*
X106855110Y-102144866D01*
X106827661Y-102122339D01*
X106805134Y-102094890D01*
X106788393Y-102063569D01*
X106778085Y-102029591D01*
X106774000Y-101988110D01*
X106774000Y-101386890D01*
X106778085Y-101345409D01*
X106788393Y-101311431D01*
X106805134Y-101280110D01*
X106827661Y-101252661D01*
X106855110Y-101230134D01*
X106886431Y-101213393D01*
X106920409Y-101203085D01*
X106961890Y-101199000D01*
X107638110Y-101199000D01*
X107679591Y-101203085D01*
X107679591Y-101203085D01*
G37*
G36*
X113176000Y-102051000D02*
G01*
X110574000Y-102051000D01*
X110574000Y-99949000D01*
X113176000Y-99949000D01*
X113176000Y-102051000D01*
X113176000Y-102051000D01*
G37*
G36*
X100501000Y-101301000D02*
G01*
X98699000Y-101301000D01*
X98699000Y-99499000D01*
X100501000Y-99499000D01*
X100501000Y-101301000D01*
X100501000Y-101301000D01*
G37*
G36*
X104529591Y-100228085D02*
G01*
X104563569Y-100238393D01*
X104594890Y-100255134D01*
X104622339Y-100277661D01*
X104644866Y-100305110D01*
X104661607Y-100336431D01*
X104671915Y-100370409D01*
X104676000Y-100411890D01*
X104676000Y-101088110D01*
X104671915Y-101129591D01*
X104661607Y-101163569D01*
X104644866Y-101194890D01*
X104622339Y-101222339D01*
X104594890Y-101244866D01*
X104563569Y-101261607D01*
X104529591Y-101271915D01*
X104488110Y-101276000D01*
X103886890Y-101276000D01*
X103845409Y-101271915D01*
X103811431Y-101261607D01*
X103780110Y-101244866D01*
X103752661Y-101222339D01*
X103730134Y-101194890D01*
X103713393Y-101163569D01*
X103703085Y-101129591D01*
X103699000Y-101088110D01*
X103699000Y-100411890D01*
X103703085Y-100370409D01*
X103713393Y-100336431D01*
X103730134Y-100305110D01*
X103752661Y-100277661D01*
X103780110Y-100255134D01*
X103811431Y-100238393D01*
X103845409Y-100228085D01*
X103886890Y-100224000D01*
X104488110Y-100224000D01*
X104529591Y-100228085D01*
X104529591Y-100228085D01*
G37*
G36*
X102954591Y-100228085D02*
G01*
X102988569Y-100238393D01*
X103019890Y-100255134D01*
X103047339Y-100277661D01*
X103069866Y-100305110D01*
X103086607Y-100336431D01*
X103096915Y-100370409D01*
X103101000Y-100411890D01*
X103101000Y-101088110D01*
X103096915Y-101129591D01*
X103086607Y-101163569D01*
X103069866Y-101194890D01*
X103047339Y-101222339D01*
X103019890Y-101244866D01*
X102988569Y-101261607D01*
X102954591Y-101271915D01*
X102913110Y-101276000D01*
X102311890Y-101276000D01*
X102270409Y-101271915D01*
X102236431Y-101261607D01*
X102205110Y-101244866D01*
X102177661Y-101222339D01*
X102155134Y-101194890D01*
X102138393Y-101163569D01*
X102128085Y-101129591D01*
X102124000Y-101088110D01*
X102124000Y-100411890D01*
X102128085Y-100370409D01*
X102138393Y-100336431D01*
X102155134Y-100305110D01*
X102177661Y-100277661D01*
X102205110Y-100255134D01*
X102236431Y-100238393D01*
X102270409Y-100228085D01*
X102311890Y-100224000D01*
X102913110Y-100224000D01*
X102954591Y-100228085D01*
X102954591Y-100228085D01*
G37*
G36*
X107679591Y-99628085D02*
G01*
X107713569Y-99638393D01*
X107744890Y-99655134D01*
X107772339Y-99677661D01*
X107794866Y-99705110D01*
X107811607Y-99736431D01*
X107821915Y-99770409D01*
X107826000Y-99811890D01*
X107826000Y-100413110D01*
X107821915Y-100454591D01*
X107811607Y-100488569D01*
X107794866Y-100519890D01*
X107772339Y-100547339D01*
X107744890Y-100569866D01*
X107713569Y-100586607D01*
X107679591Y-100596915D01*
X107638110Y-100601000D01*
X106961890Y-100601000D01*
X106920409Y-100596915D01*
X106886431Y-100586607D01*
X106855110Y-100569866D01*
X106827661Y-100547339D01*
X106805134Y-100519890D01*
X106788393Y-100488569D01*
X106778085Y-100454591D01*
X106774000Y-100413110D01*
X106774000Y-99811890D01*
X106778085Y-99770409D01*
X106788393Y-99736431D01*
X106805134Y-99705110D01*
X106827661Y-99677661D01*
X106855110Y-99655134D01*
X106886431Y-99638393D01*
X106920409Y-99628085D01*
X106961890Y-99624000D01*
X107638110Y-99624000D01*
X107679591Y-99628085D01*
X107679591Y-99628085D01*
G37*
G36*
X121826000Y-99901000D02*
G01*
X119224000Y-99901000D01*
X119224000Y-97799000D01*
X121826000Y-97799000D01*
X121826000Y-99901000D01*
X121826000Y-99901000D01*
G37*
G36*
X99710442Y-96965518D02*
G01*
X99776627Y-96972037D01*
X99946466Y-97023557D01*
X100102991Y-97107222D01*
X100138729Y-97136552D01*
X100240186Y-97219814D01*
X100300363Y-97293141D01*
X100352778Y-97357009D01*
X100436443Y-97513534D01*
X100487963Y-97683373D01*
X100505359Y-97860000D01*
X100487963Y-98036627D01*
X100436443Y-98206466D01*
X100352778Y-98362991D01*
X100345106Y-98372339D01*
X100240186Y-98500186D01*
X100138729Y-98583448D01*
X100102991Y-98612778D01*
X99946466Y-98696443D01*
X99776627Y-98747963D01*
X99710443Y-98754481D01*
X99644260Y-98761000D01*
X99555740Y-98761000D01*
X99489558Y-98754482D01*
X99423373Y-98747963D01*
X99253534Y-98696443D01*
X99097009Y-98612778D01*
X99061271Y-98583448D01*
X98959814Y-98500186D01*
X98854894Y-98372339D01*
X98847222Y-98362991D01*
X98763557Y-98206466D01*
X98712037Y-98036627D01*
X98694641Y-97860000D01*
X98712037Y-97683373D01*
X98763557Y-97513534D01*
X98847222Y-97357009D01*
X98899637Y-97293141D01*
X98959814Y-97219814D01*
X99061271Y-97136552D01*
X99097009Y-97107222D01*
X99253534Y-97023557D01*
X99423373Y-96972037D01*
X99489557Y-96965519D01*
X99555740Y-96959000D01*
X99644260Y-96959000D01*
X99710442Y-96965518D01*
X99710442Y-96965518D01*
G37*
G36*
X107504473Y-97065938D02*
G01*
X107632049Y-97118782D01*
X107746859Y-97195495D01*
X107844505Y-97293141D01*
X107921218Y-97407951D01*
X107974062Y-97535527D01*
X108001000Y-97670956D01*
X108001000Y-97809044D01*
X107974062Y-97944473D01*
X107921218Y-98072049D01*
X107844505Y-98186859D01*
X107746859Y-98284505D01*
X107632049Y-98361218D01*
X107504473Y-98414062D01*
X107369044Y-98441000D01*
X107230956Y-98441000D01*
X107095527Y-98414062D01*
X106967951Y-98361218D01*
X106853141Y-98284505D01*
X106755495Y-98186859D01*
X106678782Y-98072049D01*
X106625938Y-97944473D01*
X106599000Y-97809044D01*
X106599000Y-97670956D01*
X106625938Y-97535527D01*
X106678782Y-97407951D01*
X106755495Y-97293141D01*
X106853141Y-97195495D01*
X106967951Y-97118782D01*
X107095527Y-97065938D01*
X107230956Y-97039000D01*
X107369044Y-97039000D01*
X107504473Y-97065938D01*
X107504473Y-97065938D01*
G37*
G36*
X104529591Y-97378085D02*
G01*
X104563569Y-97388393D01*
X104594890Y-97405134D01*
X104622339Y-97427661D01*
X104644866Y-97455110D01*
X104661607Y-97486431D01*
X104671915Y-97520409D01*
X104676000Y-97561890D01*
X104676000Y-98238110D01*
X104671915Y-98279591D01*
X104661607Y-98313569D01*
X104644866Y-98344890D01*
X104622339Y-98372339D01*
X104594890Y-98394866D01*
X104563569Y-98411607D01*
X104529591Y-98421915D01*
X104488110Y-98426000D01*
X103886890Y-98426000D01*
X103845409Y-98421915D01*
X103811431Y-98411607D01*
X103780110Y-98394866D01*
X103752661Y-98372339D01*
X103730134Y-98344890D01*
X103713393Y-98313569D01*
X103703085Y-98279591D01*
X103699000Y-98238110D01*
X103699000Y-97561890D01*
X103703085Y-97520409D01*
X103713393Y-97486431D01*
X103730134Y-97455110D01*
X103752661Y-97427661D01*
X103780110Y-97405134D01*
X103811431Y-97388393D01*
X103845409Y-97378085D01*
X103886890Y-97374000D01*
X104488110Y-97374000D01*
X104529591Y-97378085D01*
X104529591Y-97378085D01*
G37*
G36*
X102954591Y-97378085D02*
G01*
X102988569Y-97388393D01*
X103019890Y-97405134D01*
X103047339Y-97427661D01*
X103069866Y-97455110D01*
X103086607Y-97486431D01*
X103096915Y-97520409D01*
X103101000Y-97561890D01*
X103101000Y-98238110D01*
X103096915Y-98279591D01*
X103086607Y-98313569D01*
X103069866Y-98344890D01*
X103047339Y-98372339D01*
X103019890Y-98394866D01*
X102988569Y-98411607D01*
X102954591Y-98421915D01*
X102913110Y-98426000D01*
X102311890Y-98426000D01*
X102270409Y-98421915D01*
X102236431Y-98411607D01*
X102205110Y-98394866D01*
X102177661Y-98372339D01*
X102155134Y-98344890D01*
X102138393Y-98313569D01*
X102128085Y-98279591D01*
X102124000Y-98238110D01*
X102124000Y-97561890D01*
X102128085Y-97520409D01*
X102138393Y-97486431D01*
X102155134Y-97455110D01*
X102177661Y-97427661D01*
X102205110Y-97405134D01*
X102236431Y-97388393D01*
X102270409Y-97378085D01*
X102311890Y-97374000D01*
X102913110Y-97374000D01*
X102954591Y-97378085D01*
X102954591Y-97378085D01*
G37*
G36*
X108001000Y-95773251D02*
G01*
X108003402Y-95797637D01*
X108010515Y-95821086D01*
X108022066Y-95842697D01*
X108037611Y-95861639D01*
X108056553Y-95877184D01*
X108078164Y-95888735D01*
X108101613Y-95895848D01*
X108125999Y-95898250D01*
X108150385Y-95895848D01*
X108173834Y-95888735D01*
X108195444Y-95877184D01*
X108237951Y-95848782D01*
X108365527Y-95795938D01*
X108500956Y-95769000D01*
X108639044Y-95769000D01*
X108774473Y-95795938D01*
X108902049Y-95848782D01*
X109016859Y-95925495D01*
X109114505Y-96023141D01*
X109191218Y-96137951D01*
X109244062Y-96265527D01*
X109271000Y-96400956D01*
X109271000Y-96539044D01*
X109244062Y-96674473D01*
X109191218Y-96802049D01*
X109114505Y-96916859D01*
X109016859Y-97014505D01*
X108902049Y-97091218D01*
X108774473Y-97144062D01*
X108639044Y-97171000D01*
X108500956Y-97171000D01*
X108365527Y-97144062D01*
X108237951Y-97091218D01*
X108123141Y-97014505D01*
X108025495Y-96916859D01*
X107948782Y-96802049D01*
X107895938Y-96674473D01*
X107869000Y-96539044D01*
X107869000Y-96400956D01*
X107895938Y-96265527D01*
X107948782Y-96137951D01*
X107977184Y-96095444D01*
X107988735Y-96073833D01*
X107995848Y-96050384D01*
X107998250Y-96025998D01*
X107995848Y-96001612D01*
X107988735Y-95978163D01*
X107977183Y-95956553D01*
X107961638Y-95937611D01*
X107942696Y-95922066D01*
X107921085Y-95910515D01*
X107897636Y-95903402D01*
X107873251Y-95901000D01*
X106599000Y-95901000D01*
X106599000Y-94499000D01*
X108001000Y-94499000D01*
X108001000Y-95773251D01*
X108001000Y-95773251D01*
G37*
G36*
X99710443Y-94425519D02*
G01*
X99776627Y-94432037D01*
X99946466Y-94483557D01*
X99946468Y-94483558D01*
X99976882Y-94499815D01*
X100102991Y-94567222D01*
X100138729Y-94596552D01*
X100240186Y-94679814D01*
X100301189Y-94754148D01*
X100352778Y-94817009D01*
X100436443Y-94973534D01*
X100487963Y-95143373D01*
X100505359Y-95320000D01*
X100487963Y-95496627D01*
X100443564Y-95642991D01*
X100436442Y-95666468D01*
X100411266Y-95713569D01*
X100352778Y-95822991D01*
X100331612Y-95848782D01*
X100240186Y-95960186D01*
X100157598Y-96027963D01*
X100102991Y-96072778D01*
X99946466Y-96156443D01*
X99776627Y-96207963D01*
X99710442Y-96214482D01*
X99644260Y-96221000D01*
X99555740Y-96221000D01*
X99489557Y-96214481D01*
X99423373Y-96207963D01*
X99253534Y-96156443D01*
X99097009Y-96072778D01*
X99042402Y-96027963D01*
X98959814Y-95960186D01*
X98868388Y-95848782D01*
X98847222Y-95822991D01*
X98788734Y-95713569D01*
X98763558Y-95666468D01*
X98756436Y-95642991D01*
X98712037Y-95496627D01*
X98694641Y-95320000D01*
X98712037Y-95143373D01*
X98763557Y-94973534D01*
X98847222Y-94817009D01*
X98898811Y-94754148D01*
X98959814Y-94679814D01*
X99061271Y-94596552D01*
X99097009Y-94567222D01*
X99223118Y-94499815D01*
X99253532Y-94483558D01*
X99253534Y-94483557D01*
X99423373Y-94432037D01*
X99489557Y-94425519D01*
X99555740Y-94419000D01*
X99644260Y-94419000D01*
X99710443Y-94425519D01*
X99710443Y-94425519D01*
G37*
G36*
X122610443Y-94245519D02*
G01*
X122676627Y-94252037D01*
X122846466Y-94303557D01*
X123002991Y-94387222D01*
X123022338Y-94403100D01*
X123140186Y-94499814D01*
X123195505Y-94567222D01*
X123252778Y-94637009D01*
X123252779Y-94637011D01*
X123335940Y-94792592D01*
X123336443Y-94793534D01*
X123387963Y-94963373D01*
X123405359Y-95140000D01*
X123387963Y-95316627D01*
X123336443Y-95486466D01*
X123252778Y-95642991D01*
X123233512Y-95666466D01*
X123140186Y-95780186D01*
X123056600Y-95848782D01*
X123002991Y-95892778D01*
X123002989Y-95892779D01*
X122876881Y-95960186D01*
X122846466Y-95976443D01*
X122676627Y-96027963D01*
X122610442Y-96034482D01*
X122544260Y-96041000D01*
X122455740Y-96041000D01*
X122389558Y-96034482D01*
X122323373Y-96027963D01*
X122153534Y-95976443D01*
X122123120Y-95960186D01*
X121997011Y-95892779D01*
X121997009Y-95892778D01*
X121943400Y-95848782D01*
X121859814Y-95780186D01*
X121766488Y-95666466D01*
X121747222Y-95642991D01*
X121663557Y-95486466D01*
X121612037Y-95316627D01*
X121594641Y-95140000D01*
X121612037Y-94963373D01*
X121663557Y-94793534D01*
X121664061Y-94792592D01*
X121747221Y-94637011D01*
X121747222Y-94637009D01*
X121804495Y-94567222D01*
X121859814Y-94499814D01*
X121977662Y-94403100D01*
X121997009Y-94387222D01*
X122153534Y-94303557D01*
X122323373Y-94252037D01*
X122389557Y-94245519D01*
X122455740Y-94239000D01*
X122544260Y-94239000D01*
X122610443Y-94245519D01*
X122610443Y-94245519D01*
G37*
G36*
X102954591Y-94778085D02*
G01*
X102988569Y-94788393D01*
X103019890Y-94805134D01*
X103047339Y-94827661D01*
X103069866Y-94855110D01*
X103086607Y-94886431D01*
X103096915Y-94920409D01*
X103101000Y-94961890D01*
X103101000Y-95638110D01*
X103096915Y-95679591D01*
X103086607Y-95713569D01*
X103069866Y-95744890D01*
X103047339Y-95772339D01*
X103019890Y-95794866D01*
X102988569Y-95811607D01*
X102954591Y-95821915D01*
X102913110Y-95826000D01*
X102311890Y-95826000D01*
X102270409Y-95821915D01*
X102236431Y-95811607D01*
X102205110Y-95794866D01*
X102177661Y-95772339D01*
X102155134Y-95744890D01*
X102138393Y-95713569D01*
X102128085Y-95679591D01*
X102124000Y-95638110D01*
X102124000Y-94961890D01*
X102128085Y-94920409D01*
X102138393Y-94886431D01*
X102155134Y-94855110D01*
X102177661Y-94827661D01*
X102205110Y-94805134D01*
X102236431Y-94788393D01*
X102270409Y-94778085D01*
X102311890Y-94774000D01*
X102913110Y-94774000D01*
X102954591Y-94778085D01*
X102954591Y-94778085D01*
G37*
G36*
X104529591Y-94778085D02*
G01*
X104563569Y-94788393D01*
X104594890Y-94805134D01*
X104622339Y-94827661D01*
X104644866Y-94855110D01*
X104661607Y-94886431D01*
X104671915Y-94920409D01*
X104676000Y-94961890D01*
X104676000Y-95638110D01*
X104671915Y-95679591D01*
X104661607Y-95713569D01*
X104644866Y-95744890D01*
X104622339Y-95772339D01*
X104594890Y-95794866D01*
X104563569Y-95811607D01*
X104529591Y-95821915D01*
X104488110Y-95826000D01*
X103886890Y-95826000D01*
X103845409Y-95821915D01*
X103811431Y-95811607D01*
X103780110Y-95794866D01*
X103752661Y-95772339D01*
X103730134Y-95744890D01*
X103713393Y-95713569D01*
X103703085Y-95679591D01*
X103699000Y-95638110D01*
X103699000Y-94961890D01*
X103703085Y-94920409D01*
X103713393Y-94886431D01*
X103730134Y-94855110D01*
X103752661Y-94827661D01*
X103780110Y-94805134D01*
X103811431Y-94788393D01*
X103845409Y-94778085D01*
X103886890Y-94774000D01*
X104488110Y-94774000D01*
X104529591Y-94778085D01*
X104529591Y-94778085D01*
G37*
G36*
X115648228Y-93181703D02*
G01*
X115803100Y-93245853D01*
X115942481Y-93338985D01*
X116061015Y-93457519D01*
X116154147Y-93596900D01*
X116218297Y-93751772D01*
X116251000Y-93916184D01*
X116251000Y-94083816D01*
X116218297Y-94248228D01*
X116154147Y-94403100D01*
X116061015Y-94542481D01*
X115942481Y-94661015D01*
X115803100Y-94754147D01*
X115648228Y-94818297D01*
X115483816Y-94851000D01*
X115316184Y-94851000D01*
X115151772Y-94818297D01*
X114996900Y-94754147D01*
X114857519Y-94661015D01*
X114738985Y-94542481D01*
X114645853Y-94403100D01*
X114581703Y-94248228D01*
X114549000Y-94083816D01*
X114549000Y-93916184D01*
X114581703Y-93751772D01*
X114645853Y-93596900D01*
X114738985Y-93457519D01*
X114857519Y-93338985D01*
X114996900Y-93245853D01*
X115151772Y-93181703D01*
X115316184Y-93149000D01*
X115483816Y-93149000D01*
X115648228Y-93181703D01*
X115648228Y-93181703D01*
G37*
G36*
X118751000Y-94851000D02*
G01*
X117049000Y-94851000D01*
X117049000Y-93149000D01*
X118751000Y-93149000D01*
X118751000Y-94851000D01*
X118751000Y-94851000D01*
G37*
G36*
X102954591Y-93228085D02*
G01*
X102988569Y-93238393D01*
X103019890Y-93255134D01*
X103047339Y-93277661D01*
X103069866Y-93305110D01*
X103086607Y-93336431D01*
X103096915Y-93370409D01*
X103101000Y-93411890D01*
X103101000Y-94088110D01*
X103096915Y-94129591D01*
X103086607Y-94163569D01*
X103069866Y-94194890D01*
X103047339Y-94222339D01*
X103019890Y-94244866D01*
X102988569Y-94261607D01*
X102954591Y-94271915D01*
X102913110Y-94276000D01*
X102311890Y-94276000D01*
X102270409Y-94271915D01*
X102236431Y-94261607D01*
X102205110Y-94244866D01*
X102177661Y-94222339D01*
X102155134Y-94194890D01*
X102138393Y-94163569D01*
X102128085Y-94129591D01*
X102124000Y-94088110D01*
X102124000Y-93411890D01*
X102128085Y-93370409D01*
X102138393Y-93336431D01*
X102155134Y-93305110D01*
X102177661Y-93277661D01*
X102205110Y-93255134D01*
X102236431Y-93238393D01*
X102270409Y-93228085D01*
X102311890Y-93224000D01*
X102913110Y-93224000D01*
X102954591Y-93228085D01*
X102954591Y-93228085D01*
G37*
G36*
X104529591Y-93228085D02*
G01*
X104563569Y-93238393D01*
X104594890Y-93255134D01*
X104622339Y-93277661D01*
X104644866Y-93305110D01*
X104661607Y-93336431D01*
X104671915Y-93370409D01*
X104676000Y-93411890D01*
X104676000Y-94088110D01*
X104671915Y-94129591D01*
X104661607Y-94163569D01*
X104644866Y-94194890D01*
X104622339Y-94222339D01*
X104594890Y-94244866D01*
X104563569Y-94261607D01*
X104529591Y-94271915D01*
X104488110Y-94276000D01*
X103886890Y-94276000D01*
X103845409Y-94271915D01*
X103811431Y-94261607D01*
X103780110Y-94244866D01*
X103752661Y-94222339D01*
X103730134Y-94194890D01*
X103713393Y-94163569D01*
X103703085Y-94129591D01*
X103699000Y-94088110D01*
X103699000Y-93411890D01*
X103703085Y-93370409D01*
X103713393Y-93336431D01*
X103730134Y-93305110D01*
X103752661Y-93277661D01*
X103780110Y-93255134D01*
X103811431Y-93238393D01*
X103845409Y-93228085D01*
X103886890Y-93224000D01*
X104488110Y-93224000D01*
X104529591Y-93228085D01*
X104529591Y-93228085D01*
G37*
G36*
X123401000Y-93501000D02*
G01*
X121599000Y-93501000D01*
X121599000Y-91699000D01*
X123401000Y-91699000D01*
X123401000Y-93501000D01*
X123401000Y-93501000D01*
G37*
G36*
X111167091Y-92078085D02*
G01*
X111201069Y-92088393D01*
X111232390Y-92105134D01*
X111259839Y-92127661D01*
X111282366Y-92155110D01*
X111299107Y-92186431D01*
X111309415Y-92220409D01*
X111313500Y-92261890D01*
X111313500Y-92938110D01*
X111309415Y-92979591D01*
X111299107Y-93013569D01*
X111282366Y-93044890D01*
X111259839Y-93072339D01*
X111232390Y-93094866D01*
X111201069Y-93111607D01*
X111167091Y-93121915D01*
X111125610Y-93126000D01*
X110524390Y-93126000D01*
X110482909Y-93121915D01*
X110448931Y-93111607D01*
X110417610Y-93094866D01*
X110390161Y-93072339D01*
X110367634Y-93044890D01*
X110350893Y-93013569D01*
X110340585Y-92979591D01*
X110336500Y-92938110D01*
X110336500Y-92261890D01*
X110340585Y-92220409D01*
X110350893Y-92186431D01*
X110367634Y-92155110D01*
X110390161Y-92127661D01*
X110417610Y-92105134D01*
X110448931Y-92088393D01*
X110482909Y-92078085D01*
X110524390Y-92074000D01*
X111125610Y-92074000D01*
X111167091Y-92078085D01*
X111167091Y-92078085D01*
G37*
G36*
X112742091Y-92078085D02*
G01*
X112776069Y-92088393D01*
X112807390Y-92105134D01*
X112834839Y-92127661D01*
X112857366Y-92155110D01*
X112874107Y-92186431D01*
X112884415Y-92220409D01*
X112888500Y-92261890D01*
X112888500Y-92938110D01*
X112884415Y-92979591D01*
X112874107Y-93013569D01*
X112857366Y-93044890D01*
X112834839Y-93072339D01*
X112807390Y-93094866D01*
X112776069Y-93111607D01*
X112742091Y-93121915D01*
X112700610Y-93126000D01*
X112099390Y-93126000D01*
X112057909Y-93121915D01*
X112023931Y-93111607D01*
X111992610Y-93094866D01*
X111965161Y-93072339D01*
X111942634Y-93044890D01*
X111925893Y-93013569D01*
X111915585Y-92979591D01*
X111911500Y-92938110D01*
X111911500Y-92261890D01*
X111915585Y-92220409D01*
X111925893Y-92186431D01*
X111942634Y-92155110D01*
X111965161Y-92127661D01*
X111992610Y-92105134D01*
X112023931Y-92088393D01*
X112057909Y-92078085D01*
X112099390Y-92074000D01*
X112700610Y-92074000D01*
X112742091Y-92078085D01*
X112742091Y-92078085D01*
G37*
M02*
