G04 #@! TF.GenerationSoftware,KiCad,Pcbnew,(5.1.4)-1*
G04 #@! TF.CreationDate,2020-05-05T22:30:09+03:00*
G04 #@! TF.ProjectId,Singe_transistor_AMP,53696e67-655f-4747-9261-6e736973746f,V1*
G04 #@! TF.SameCoordinates,Original*
G04 #@! TF.FileFunction,Paste,Top*
G04 #@! TF.FilePolarity,Positive*
%FSLAX46Y46*%
G04 Gerber Fmt 4.6, Leading zero omitted, Abs format (unit mm)*
G04 Created by KiCad (PCBNEW (5.1.4)-1) date 2020-05-05 22:30:09*
%MOMM*%
%LPD*%
G04 APERTURE LIST*
%ADD10R,2.500000X2.000000*%
%ADD11C,0.100000*%
%ADD12C,0.875000*%
G04 APERTURE END LIST*
D10*
X120525000Y-103150000D03*
X111875000Y-101000000D03*
X120525000Y-98850000D03*
D11*
G36*
X102852691Y-97426053D02*
G01*
X102873926Y-97429203D01*
X102894750Y-97434419D01*
X102914962Y-97441651D01*
X102934368Y-97450830D01*
X102952781Y-97461866D01*
X102970024Y-97474654D01*
X102985930Y-97489070D01*
X103000346Y-97504976D01*
X103013134Y-97522219D01*
X103024170Y-97540632D01*
X103033349Y-97560038D01*
X103040581Y-97580250D01*
X103045797Y-97601074D01*
X103048947Y-97622309D01*
X103050000Y-97643750D01*
X103050000Y-98156250D01*
X103048947Y-98177691D01*
X103045797Y-98198926D01*
X103040581Y-98219750D01*
X103033349Y-98239962D01*
X103024170Y-98259368D01*
X103013134Y-98277781D01*
X103000346Y-98295024D01*
X102985930Y-98310930D01*
X102970024Y-98325346D01*
X102952781Y-98338134D01*
X102934368Y-98349170D01*
X102914962Y-98358349D01*
X102894750Y-98365581D01*
X102873926Y-98370797D01*
X102852691Y-98373947D01*
X102831250Y-98375000D01*
X102393750Y-98375000D01*
X102372309Y-98373947D01*
X102351074Y-98370797D01*
X102330250Y-98365581D01*
X102310038Y-98358349D01*
X102290632Y-98349170D01*
X102272219Y-98338134D01*
X102254976Y-98325346D01*
X102239070Y-98310930D01*
X102224654Y-98295024D01*
X102211866Y-98277781D01*
X102200830Y-98259368D01*
X102191651Y-98239962D01*
X102184419Y-98219750D01*
X102179203Y-98198926D01*
X102176053Y-98177691D01*
X102175000Y-98156250D01*
X102175000Y-97643750D01*
X102176053Y-97622309D01*
X102179203Y-97601074D01*
X102184419Y-97580250D01*
X102191651Y-97560038D01*
X102200830Y-97540632D01*
X102211866Y-97522219D01*
X102224654Y-97504976D01*
X102239070Y-97489070D01*
X102254976Y-97474654D01*
X102272219Y-97461866D01*
X102290632Y-97450830D01*
X102310038Y-97441651D01*
X102330250Y-97434419D01*
X102351074Y-97429203D01*
X102372309Y-97426053D01*
X102393750Y-97425000D01*
X102831250Y-97425000D01*
X102852691Y-97426053D01*
X102852691Y-97426053D01*
G37*
D12*
X102612500Y-97900000D03*
D11*
G36*
X104427691Y-97426053D02*
G01*
X104448926Y-97429203D01*
X104469750Y-97434419D01*
X104489962Y-97441651D01*
X104509368Y-97450830D01*
X104527781Y-97461866D01*
X104545024Y-97474654D01*
X104560930Y-97489070D01*
X104575346Y-97504976D01*
X104588134Y-97522219D01*
X104599170Y-97540632D01*
X104608349Y-97560038D01*
X104615581Y-97580250D01*
X104620797Y-97601074D01*
X104623947Y-97622309D01*
X104625000Y-97643750D01*
X104625000Y-98156250D01*
X104623947Y-98177691D01*
X104620797Y-98198926D01*
X104615581Y-98219750D01*
X104608349Y-98239962D01*
X104599170Y-98259368D01*
X104588134Y-98277781D01*
X104575346Y-98295024D01*
X104560930Y-98310930D01*
X104545024Y-98325346D01*
X104527781Y-98338134D01*
X104509368Y-98349170D01*
X104489962Y-98358349D01*
X104469750Y-98365581D01*
X104448926Y-98370797D01*
X104427691Y-98373947D01*
X104406250Y-98375000D01*
X103968750Y-98375000D01*
X103947309Y-98373947D01*
X103926074Y-98370797D01*
X103905250Y-98365581D01*
X103885038Y-98358349D01*
X103865632Y-98349170D01*
X103847219Y-98338134D01*
X103829976Y-98325346D01*
X103814070Y-98310930D01*
X103799654Y-98295024D01*
X103786866Y-98277781D01*
X103775830Y-98259368D01*
X103766651Y-98239962D01*
X103759419Y-98219750D01*
X103754203Y-98198926D01*
X103751053Y-98177691D01*
X103750000Y-98156250D01*
X103750000Y-97643750D01*
X103751053Y-97622309D01*
X103754203Y-97601074D01*
X103759419Y-97580250D01*
X103766651Y-97560038D01*
X103775830Y-97540632D01*
X103786866Y-97522219D01*
X103799654Y-97504976D01*
X103814070Y-97489070D01*
X103829976Y-97474654D01*
X103847219Y-97461866D01*
X103865632Y-97450830D01*
X103885038Y-97441651D01*
X103905250Y-97434419D01*
X103926074Y-97429203D01*
X103947309Y-97426053D01*
X103968750Y-97425000D01*
X104406250Y-97425000D01*
X104427691Y-97426053D01*
X104427691Y-97426053D01*
G37*
D12*
X104187500Y-97900000D03*
D11*
G36*
X112640191Y-92126053D02*
G01*
X112661426Y-92129203D01*
X112682250Y-92134419D01*
X112702462Y-92141651D01*
X112721868Y-92150830D01*
X112740281Y-92161866D01*
X112757524Y-92174654D01*
X112773430Y-92189070D01*
X112787846Y-92204976D01*
X112800634Y-92222219D01*
X112811670Y-92240632D01*
X112820849Y-92260038D01*
X112828081Y-92280250D01*
X112833297Y-92301074D01*
X112836447Y-92322309D01*
X112837500Y-92343750D01*
X112837500Y-92856250D01*
X112836447Y-92877691D01*
X112833297Y-92898926D01*
X112828081Y-92919750D01*
X112820849Y-92939962D01*
X112811670Y-92959368D01*
X112800634Y-92977781D01*
X112787846Y-92995024D01*
X112773430Y-93010930D01*
X112757524Y-93025346D01*
X112740281Y-93038134D01*
X112721868Y-93049170D01*
X112702462Y-93058349D01*
X112682250Y-93065581D01*
X112661426Y-93070797D01*
X112640191Y-93073947D01*
X112618750Y-93075000D01*
X112181250Y-93075000D01*
X112159809Y-93073947D01*
X112138574Y-93070797D01*
X112117750Y-93065581D01*
X112097538Y-93058349D01*
X112078132Y-93049170D01*
X112059719Y-93038134D01*
X112042476Y-93025346D01*
X112026570Y-93010930D01*
X112012154Y-92995024D01*
X111999366Y-92977781D01*
X111988330Y-92959368D01*
X111979151Y-92939962D01*
X111971919Y-92919750D01*
X111966703Y-92898926D01*
X111963553Y-92877691D01*
X111962500Y-92856250D01*
X111962500Y-92343750D01*
X111963553Y-92322309D01*
X111966703Y-92301074D01*
X111971919Y-92280250D01*
X111979151Y-92260038D01*
X111988330Y-92240632D01*
X111999366Y-92222219D01*
X112012154Y-92204976D01*
X112026570Y-92189070D01*
X112042476Y-92174654D01*
X112059719Y-92161866D01*
X112078132Y-92150830D01*
X112097538Y-92141651D01*
X112117750Y-92134419D01*
X112138574Y-92129203D01*
X112159809Y-92126053D01*
X112181250Y-92125000D01*
X112618750Y-92125000D01*
X112640191Y-92126053D01*
X112640191Y-92126053D01*
G37*
D12*
X112400000Y-92600000D03*
D11*
G36*
X111065191Y-92126053D02*
G01*
X111086426Y-92129203D01*
X111107250Y-92134419D01*
X111127462Y-92141651D01*
X111146868Y-92150830D01*
X111165281Y-92161866D01*
X111182524Y-92174654D01*
X111198430Y-92189070D01*
X111212846Y-92204976D01*
X111225634Y-92222219D01*
X111236670Y-92240632D01*
X111245849Y-92260038D01*
X111253081Y-92280250D01*
X111258297Y-92301074D01*
X111261447Y-92322309D01*
X111262500Y-92343750D01*
X111262500Y-92856250D01*
X111261447Y-92877691D01*
X111258297Y-92898926D01*
X111253081Y-92919750D01*
X111245849Y-92939962D01*
X111236670Y-92959368D01*
X111225634Y-92977781D01*
X111212846Y-92995024D01*
X111198430Y-93010930D01*
X111182524Y-93025346D01*
X111165281Y-93038134D01*
X111146868Y-93049170D01*
X111127462Y-93058349D01*
X111107250Y-93065581D01*
X111086426Y-93070797D01*
X111065191Y-93073947D01*
X111043750Y-93075000D01*
X110606250Y-93075000D01*
X110584809Y-93073947D01*
X110563574Y-93070797D01*
X110542750Y-93065581D01*
X110522538Y-93058349D01*
X110503132Y-93049170D01*
X110484719Y-93038134D01*
X110467476Y-93025346D01*
X110451570Y-93010930D01*
X110437154Y-92995024D01*
X110424366Y-92977781D01*
X110413330Y-92959368D01*
X110404151Y-92939962D01*
X110396919Y-92919750D01*
X110391703Y-92898926D01*
X110388553Y-92877691D01*
X110387500Y-92856250D01*
X110387500Y-92343750D01*
X110388553Y-92322309D01*
X110391703Y-92301074D01*
X110396919Y-92280250D01*
X110404151Y-92260038D01*
X110413330Y-92240632D01*
X110424366Y-92222219D01*
X110437154Y-92204976D01*
X110451570Y-92189070D01*
X110467476Y-92174654D01*
X110484719Y-92161866D01*
X110503132Y-92150830D01*
X110522538Y-92141651D01*
X110542750Y-92134419D01*
X110563574Y-92129203D01*
X110584809Y-92126053D01*
X110606250Y-92125000D01*
X111043750Y-92125000D01*
X111065191Y-92126053D01*
X111065191Y-92126053D01*
G37*
D12*
X110825000Y-92600000D03*
D11*
G36*
X102852691Y-94826053D02*
G01*
X102873926Y-94829203D01*
X102894750Y-94834419D01*
X102914962Y-94841651D01*
X102934368Y-94850830D01*
X102952781Y-94861866D01*
X102970024Y-94874654D01*
X102985930Y-94889070D01*
X103000346Y-94904976D01*
X103013134Y-94922219D01*
X103024170Y-94940632D01*
X103033349Y-94960038D01*
X103040581Y-94980250D01*
X103045797Y-95001074D01*
X103048947Y-95022309D01*
X103050000Y-95043750D01*
X103050000Y-95556250D01*
X103048947Y-95577691D01*
X103045797Y-95598926D01*
X103040581Y-95619750D01*
X103033349Y-95639962D01*
X103024170Y-95659368D01*
X103013134Y-95677781D01*
X103000346Y-95695024D01*
X102985930Y-95710930D01*
X102970024Y-95725346D01*
X102952781Y-95738134D01*
X102934368Y-95749170D01*
X102914962Y-95758349D01*
X102894750Y-95765581D01*
X102873926Y-95770797D01*
X102852691Y-95773947D01*
X102831250Y-95775000D01*
X102393750Y-95775000D01*
X102372309Y-95773947D01*
X102351074Y-95770797D01*
X102330250Y-95765581D01*
X102310038Y-95758349D01*
X102290632Y-95749170D01*
X102272219Y-95738134D01*
X102254976Y-95725346D01*
X102239070Y-95710930D01*
X102224654Y-95695024D01*
X102211866Y-95677781D01*
X102200830Y-95659368D01*
X102191651Y-95639962D01*
X102184419Y-95619750D01*
X102179203Y-95598926D01*
X102176053Y-95577691D01*
X102175000Y-95556250D01*
X102175000Y-95043750D01*
X102176053Y-95022309D01*
X102179203Y-95001074D01*
X102184419Y-94980250D01*
X102191651Y-94960038D01*
X102200830Y-94940632D01*
X102211866Y-94922219D01*
X102224654Y-94904976D01*
X102239070Y-94889070D01*
X102254976Y-94874654D01*
X102272219Y-94861866D01*
X102290632Y-94850830D01*
X102310038Y-94841651D01*
X102330250Y-94834419D01*
X102351074Y-94829203D01*
X102372309Y-94826053D01*
X102393750Y-94825000D01*
X102831250Y-94825000D01*
X102852691Y-94826053D01*
X102852691Y-94826053D01*
G37*
D12*
X102612500Y-95300000D03*
D11*
G36*
X104427691Y-94826053D02*
G01*
X104448926Y-94829203D01*
X104469750Y-94834419D01*
X104489962Y-94841651D01*
X104509368Y-94850830D01*
X104527781Y-94861866D01*
X104545024Y-94874654D01*
X104560930Y-94889070D01*
X104575346Y-94904976D01*
X104588134Y-94922219D01*
X104599170Y-94940632D01*
X104608349Y-94960038D01*
X104615581Y-94980250D01*
X104620797Y-95001074D01*
X104623947Y-95022309D01*
X104625000Y-95043750D01*
X104625000Y-95556250D01*
X104623947Y-95577691D01*
X104620797Y-95598926D01*
X104615581Y-95619750D01*
X104608349Y-95639962D01*
X104599170Y-95659368D01*
X104588134Y-95677781D01*
X104575346Y-95695024D01*
X104560930Y-95710930D01*
X104545024Y-95725346D01*
X104527781Y-95738134D01*
X104509368Y-95749170D01*
X104489962Y-95758349D01*
X104469750Y-95765581D01*
X104448926Y-95770797D01*
X104427691Y-95773947D01*
X104406250Y-95775000D01*
X103968750Y-95775000D01*
X103947309Y-95773947D01*
X103926074Y-95770797D01*
X103905250Y-95765581D01*
X103885038Y-95758349D01*
X103865632Y-95749170D01*
X103847219Y-95738134D01*
X103829976Y-95725346D01*
X103814070Y-95710930D01*
X103799654Y-95695024D01*
X103786866Y-95677781D01*
X103775830Y-95659368D01*
X103766651Y-95639962D01*
X103759419Y-95619750D01*
X103754203Y-95598926D01*
X103751053Y-95577691D01*
X103750000Y-95556250D01*
X103750000Y-95043750D01*
X103751053Y-95022309D01*
X103754203Y-95001074D01*
X103759419Y-94980250D01*
X103766651Y-94960038D01*
X103775830Y-94940632D01*
X103786866Y-94922219D01*
X103799654Y-94904976D01*
X103814070Y-94889070D01*
X103829976Y-94874654D01*
X103847219Y-94861866D01*
X103865632Y-94850830D01*
X103885038Y-94841651D01*
X103905250Y-94834419D01*
X103926074Y-94829203D01*
X103947309Y-94826053D01*
X103968750Y-94825000D01*
X104406250Y-94825000D01*
X104427691Y-94826053D01*
X104427691Y-94826053D01*
G37*
D12*
X104187500Y-95300000D03*
D11*
G36*
X102852691Y-100276053D02*
G01*
X102873926Y-100279203D01*
X102894750Y-100284419D01*
X102914962Y-100291651D01*
X102934368Y-100300830D01*
X102952781Y-100311866D01*
X102970024Y-100324654D01*
X102985930Y-100339070D01*
X103000346Y-100354976D01*
X103013134Y-100372219D01*
X103024170Y-100390632D01*
X103033349Y-100410038D01*
X103040581Y-100430250D01*
X103045797Y-100451074D01*
X103048947Y-100472309D01*
X103050000Y-100493750D01*
X103050000Y-101006250D01*
X103048947Y-101027691D01*
X103045797Y-101048926D01*
X103040581Y-101069750D01*
X103033349Y-101089962D01*
X103024170Y-101109368D01*
X103013134Y-101127781D01*
X103000346Y-101145024D01*
X102985930Y-101160930D01*
X102970024Y-101175346D01*
X102952781Y-101188134D01*
X102934368Y-101199170D01*
X102914962Y-101208349D01*
X102894750Y-101215581D01*
X102873926Y-101220797D01*
X102852691Y-101223947D01*
X102831250Y-101225000D01*
X102393750Y-101225000D01*
X102372309Y-101223947D01*
X102351074Y-101220797D01*
X102330250Y-101215581D01*
X102310038Y-101208349D01*
X102290632Y-101199170D01*
X102272219Y-101188134D01*
X102254976Y-101175346D01*
X102239070Y-101160930D01*
X102224654Y-101145024D01*
X102211866Y-101127781D01*
X102200830Y-101109368D01*
X102191651Y-101089962D01*
X102184419Y-101069750D01*
X102179203Y-101048926D01*
X102176053Y-101027691D01*
X102175000Y-101006250D01*
X102175000Y-100493750D01*
X102176053Y-100472309D01*
X102179203Y-100451074D01*
X102184419Y-100430250D01*
X102191651Y-100410038D01*
X102200830Y-100390632D01*
X102211866Y-100372219D01*
X102224654Y-100354976D01*
X102239070Y-100339070D01*
X102254976Y-100324654D01*
X102272219Y-100311866D01*
X102290632Y-100300830D01*
X102310038Y-100291651D01*
X102330250Y-100284419D01*
X102351074Y-100279203D01*
X102372309Y-100276053D01*
X102393750Y-100275000D01*
X102831250Y-100275000D01*
X102852691Y-100276053D01*
X102852691Y-100276053D01*
G37*
D12*
X102612500Y-100750000D03*
D11*
G36*
X104427691Y-100276053D02*
G01*
X104448926Y-100279203D01*
X104469750Y-100284419D01*
X104489962Y-100291651D01*
X104509368Y-100300830D01*
X104527781Y-100311866D01*
X104545024Y-100324654D01*
X104560930Y-100339070D01*
X104575346Y-100354976D01*
X104588134Y-100372219D01*
X104599170Y-100390632D01*
X104608349Y-100410038D01*
X104615581Y-100430250D01*
X104620797Y-100451074D01*
X104623947Y-100472309D01*
X104625000Y-100493750D01*
X104625000Y-101006250D01*
X104623947Y-101027691D01*
X104620797Y-101048926D01*
X104615581Y-101069750D01*
X104608349Y-101089962D01*
X104599170Y-101109368D01*
X104588134Y-101127781D01*
X104575346Y-101145024D01*
X104560930Y-101160930D01*
X104545024Y-101175346D01*
X104527781Y-101188134D01*
X104509368Y-101199170D01*
X104489962Y-101208349D01*
X104469750Y-101215581D01*
X104448926Y-101220797D01*
X104427691Y-101223947D01*
X104406250Y-101225000D01*
X103968750Y-101225000D01*
X103947309Y-101223947D01*
X103926074Y-101220797D01*
X103905250Y-101215581D01*
X103885038Y-101208349D01*
X103865632Y-101199170D01*
X103847219Y-101188134D01*
X103829976Y-101175346D01*
X103814070Y-101160930D01*
X103799654Y-101145024D01*
X103786866Y-101127781D01*
X103775830Y-101109368D01*
X103766651Y-101089962D01*
X103759419Y-101069750D01*
X103754203Y-101048926D01*
X103751053Y-101027691D01*
X103750000Y-101006250D01*
X103750000Y-100493750D01*
X103751053Y-100472309D01*
X103754203Y-100451074D01*
X103759419Y-100430250D01*
X103766651Y-100410038D01*
X103775830Y-100390632D01*
X103786866Y-100372219D01*
X103799654Y-100354976D01*
X103814070Y-100339070D01*
X103829976Y-100324654D01*
X103847219Y-100311866D01*
X103865632Y-100300830D01*
X103885038Y-100291651D01*
X103905250Y-100284419D01*
X103926074Y-100279203D01*
X103947309Y-100276053D01*
X103968750Y-100275000D01*
X104406250Y-100275000D01*
X104427691Y-100276053D01*
X104427691Y-100276053D01*
G37*
D12*
X104187500Y-100750000D03*
D11*
G36*
X104427691Y-93276053D02*
G01*
X104448926Y-93279203D01*
X104469750Y-93284419D01*
X104489962Y-93291651D01*
X104509368Y-93300830D01*
X104527781Y-93311866D01*
X104545024Y-93324654D01*
X104560930Y-93339070D01*
X104575346Y-93354976D01*
X104588134Y-93372219D01*
X104599170Y-93390632D01*
X104608349Y-93410038D01*
X104615581Y-93430250D01*
X104620797Y-93451074D01*
X104623947Y-93472309D01*
X104625000Y-93493750D01*
X104625000Y-94006250D01*
X104623947Y-94027691D01*
X104620797Y-94048926D01*
X104615581Y-94069750D01*
X104608349Y-94089962D01*
X104599170Y-94109368D01*
X104588134Y-94127781D01*
X104575346Y-94145024D01*
X104560930Y-94160930D01*
X104545024Y-94175346D01*
X104527781Y-94188134D01*
X104509368Y-94199170D01*
X104489962Y-94208349D01*
X104469750Y-94215581D01*
X104448926Y-94220797D01*
X104427691Y-94223947D01*
X104406250Y-94225000D01*
X103968750Y-94225000D01*
X103947309Y-94223947D01*
X103926074Y-94220797D01*
X103905250Y-94215581D01*
X103885038Y-94208349D01*
X103865632Y-94199170D01*
X103847219Y-94188134D01*
X103829976Y-94175346D01*
X103814070Y-94160930D01*
X103799654Y-94145024D01*
X103786866Y-94127781D01*
X103775830Y-94109368D01*
X103766651Y-94089962D01*
X103759419Y-94069750D01*
X103754203Y-94048926D01*
X103751053Y-94027691D01*
X103750000Y-94006250D01*
X103750000Y-93493750D01*
X103751053Y-93472309D01*
X103754203Y-93451074D01*
X103759419Y-93430250D01*
X103766651Y-93410038D01*
X103775830Y-93390632D01*
X103786866Y-93372219D01*
X103799654Y-93354976D01*
X103814070Y-93339070D01*
X103829976Y-93324654D01*
X103847219Y-93311866D01*
X103865632Y-93300830D01*
X103885038Y-93291651D01*
X103905250Y-93284419D01*
X103926074Y-93279203D01*
X103947309Y-93276053D01*
X103968750Y-93275000D01*
X104406250Y-93275000D01*
X104427691Y-93276053D01*
X104427691Y-93276053D01*
G37*
D12*
X104187500Y-93750000D03*
D11*
G36*
X102852691Y-93276053D02*
G01*
X102873926Y-93279203D01*
X102894750Y-93284419D01*
X102914962Y-93291651D01*
X102934368Y-93300830D01*
X102952781Y-93311866D01*
X102970024Y-93324654D01*
X102985930Y-93339070D01*
X103000346Y-93354976D01*
X103013134Y-93372219D01*
X103024170Y-93390632D01*
X103033349Y-93410038D01*
X103040581Y-93430250D01*
X103045797Y-93451074D01*
X103048947Y-93472309D01*
X103050000Y-93493750D01*
X103050000Y-94006250D01*
X103048947Y-94027691D01*
X103045797Y-94048926D01*
X103040581Y-94069750D01*
X103033349Y-94089962D01*
X103024170Y-94109368D01*
X103013134Y-94127781D01*
X103000346Y-94145024D01*
X102985930Y-94160930D01*
X102970024Y-94175346D01*
X102952781Y-94188134D01*
X102934368Y-94199170D01*
X102914962Y-94208349D01*
X102894750Y-94215581D01*
X102873926Y-94220797D01*
X102852691Y-94223947D01*
X102831250Y-94225000D01*
X102393750Y-94225000D01*
X102372309Y-94223947D01*
X102351074Y-94220797D01*
X102330250Y-94215581D01*
X102310038Y-94208349D01*
X102290632Y-94199170D01*
X102272219Y-94188134D01*
X102254976Y-94175346D01*
X102239070Y-94160930D01*
X102224654Y-94145024D01*
X102211866Y-94127781D01*
X102200830Y-94109368D01*
X102191651Y-94089962D01*
X102184419Y-94069750D01*
X102179203Y-94048926D01*
X102176053Y-94027691D01*
X102175000Y-94006250D01*
X102175000Y-93493750D01*
X102176053Y-93472309D01*
X102179203Y-93451074D01*
X102184419Y-93430250D01*
X102191651Y-93410038D01*
X102200830Y-93390632D01*
X102211866Y-93372219D01*
X102224654Y-93354976D01*
X102239070Y-93339070D01*
X102254976Y-93324654D01*
X102272219Y-93311866D01*
X102290632Y-93300830D01*
X102310038Y-93291651D01*
X102330250Y-93284419D01*
X102351074Y-93279203D01*
X102372309Y-93276053D01*
X102393750Y-93275000D01*
X102831250Y-93275000D01*
X102852691Y-93276053D01*
X102852691Y-93276053D01*
G37*
D12*
X102612500Y-93750000D03*
D11*
G36*
X107577691Y-99676053D02*
G01*
X107598926Y-99679203D01*
X107619750Y-99684419D01*
X107639962Y-99691651D01*
X107659368Y-99700830D01*
X107677781Y-99711866D01*
X107695024Y-99724654D01*
X107710930Y-99739070D01*
X107725346Y-99754976D01*
X107738134Y-99772219D01*
X107749170Y-99790632D01*
X107758349Y-99810038D01*
X107765581Y-99830250D01*
X107770797Y-99851074D01*
X107773947Y-99872309D01*
X107775000Y-99893750D01*
X107775000Y-100331250D01*
X107773947Y-100352691D01*
X107770797Y-100373926D01*
X107765581Y-100394750D01*
X107758349Y-100414962D01*
X107749170Y-100434368D01*
X107738134Y-100452781D01*
X107725346Y-100470024D01*
X107710930Y-100485930D01*
X107695024Y-100500346D01*
X107677781Y-100513134D01*
X107659368Y-100524170D01*
X107639962Y-100533349D01*
X107619750Y-100540581D01*
X107598926Y-100545797D01*
X107577691Y-100548947D01*
X107556250Y-100550000D01*
X107043750Y-100550000D01*
X107022309Y-100548947D01*
X107001074Y-100545797D01*
X106980250Y-100540581D01*
X106960038Y-100533349D01*
X106940632Y-100524170D01*
X106922219Y-100513134D01*
X106904976Y-100500346D01*
X106889070Y-100485930D01*
X106874654Y-100470024D01*
X106861866Y-100452781D01*
X106850830Y-100434368D01*
X106841651Y-100414962D01*
X106834419Y-100394750D01*
X106829203Y-100373926D01*
X106826053Y-100352691D01*
X106825000Y-100331250D01*
X106825000Y-99893750D01*
X106826053Y-99872309D01*
X106829203Y-99851074D01*
X106834419Y-99830250D01*
X106841651Y-99810038D01*
X106850830Y-99790632D01*
X106861866Y-99772219D01*
X106874654Y-99754976D01*
X106889070Y-99739070D01*
X106904976Y-99724654D01*
X106922219Y-99711866D01*
X106940632Y-99700830D01*
X106960038Y-99691651D01*
X106980250Y-99684419D01*
X107001074Y-99679203D01*
X107022309Y-99676053D01*
X107043750Y-99675000D01*
X107556250Y-99675000D01*
X107577691Y-99676053D01*
X107577691Y-99676053D01*
G37*
D12*
X107300000Y-100112500D03*
D11*
G36*
X107577691Y-101251053D02*
G01*
X107598926Y-101254203D01*
X107619750Y-101259419D01*
X107639962Y-101266651D01*
X107659368Y-101275830D01*
X107677781Y-101286866D01*
X107695024Y-101299654D01*
X107710930Y-101314070D01*
X107725346Y-101329976D01*
X107738134Y-101347219D01*
X107749170Y-101365632D01*
X107758349Y-101385038D01*
X107765581Y-101405250D01*
X107770797Y-101426074D01*
X107773947Y-101447309D01*
X107775000Y-101468750D01*
X107775000Y-101906250D01*
X107773947Y-101927691D01*
X107770797Y-101948926D01*
X107765581Y-101969750D01*
X107758349Y-101989962D01*
X107749170Y-102009368D01*
X107738134Y-102027781D01*
X107725346Y-102045024D01*
X107710930Y-102060930D01*
X107695024Y-102075346D01*
X107677781Y-102088134D01*
X107659368Y-102099170D01*
X107639962Y-102108349D01*
X107619750Y-102115581D01*
X107598926Y-102120797D01*
X107577691Y-102123947D01*
X107556250Y-102125000D01*
X107043750Y-102125000D01*
X107022309Y-102123947D01*
X107001074Y-102120797D01*
X106980250Y-102115581D01*
X106960038Y-102108349D01*
X106940632Y-102099170D01*
X106922219Y-102088134D01*
X106904976Y-102075346D01*
X106889070Y-102060930D01*
X106874654Y-102045024D01*
X106861866Y-102027781D01*
X106850830Y-102009368D01*
X106841651Y-101989962D01*
X106834419Y-101969750D01*
X106829203Y-101948926D01*
X106826053Y-101927691D01*
X106825000Y-101906250D01*
X106825000Y-101468750D01*
X106826053Y-101447309D01*
X106829203Y-101426074D01*
X106834419Y-101405250D01*
X106841651Y-101385038D01*
X106850830Y-101365632D01*
X106861866Y-101347219D01*
X106874654Y-101329976D01*
X106889070Y-101314070D01*
X106904976Y-101299654D01*
X106922219Y-101286866D01*
X106940632Y-101275830D01*
X106960038Y-101266651D01*
X106980250Y-101259419D01*
X107001074Y-101254203D01*
X107022309Y-101251053D01*
X107043750Y-101250000D01*
X107556250Y-101250000D01*
X107577691Y-101251053D01*
X107577691Y-101251053D01*
G37*
D12*
X107300000Y-101687500D03*
M02*
